<?xml version="1.0" encoding="UTF-8" standalone="no"?>
<!DOCTYPE svg PUBLIC "-//W3C//DTD SVG 1.1//EN"
 "http://www.w3.org/Graphics/SVG/1.1/DTD/svg11.dtd">
<!-- Generated by graphviz version 14.0.2 (20251019.1705)
 -->
<!-- Title: efficientnet_b0_arch Pages: 1 -->
<svg width="1284pt" height="9900pt"
 viewBox="0.00 0.00 1284.00 9900.00" xmlns="http://www.w3.org/2000/svg" xmlns:xlink="http://www.w3.org/1999/xlink">
<g id="graph0" class="graph" transform="scale(4.75962 4.75962) rotate(0) translate(4 2076)">
<title>efficientnet_b0_arch</title>
<polygon fill="white" stroke="none" points="-4,4 -4,-2076 265.82,-2076 265.82,4 -4,4"/>
<!-- 0 -->
<g id="node1" class="node">
<title>0</title>
<polygon fill="lightyellow" stroke="none" points="201.23,-2072 60.6,-2072 60.6,-2042 201.23,-2042 201.23,-2072"/>
<polygon fill="none" stroke="black" points="60.6,-2042 60.6,-2072 123.4,-2072 123.4,-2042 60.6,-2042"/>
<text xml:space="preserve" text-anchor="start" x="65.6" y="-2059" font-family="Linux libertine" font-size="10.00">input&#45;tensor</text>
<text xml:space="preserve" text-anchor="start" x="75.32" y="-2049" font-family="Linux libertine" font-size="10.00">depth:0</text>
<polygon fill="none" stroke="black" points="123.4,-2042 123.4,-2072 201.23,-2072 201.23,-2042 123.4,-2042"/>
<text xml:space="preserve" text-anchor="start" x="128.4" y="-2054" font-family="Linux libertine" font-size="10.00">(1, 3, 200, 200)</text>
</g>
<!-- 1 -->
<g id="node2" class="node">
<title>1</title>
<polygon fill="#c1ffc1" stroke="none" points="261.82,-2006 0,-2006 0,-1966 261.82,-1966 261.82,-2006"/>
<polygon fill="none" stroke="black" points="0,-1966 0,-2006 132.3,-2006 132.3,-1966 0,-1966"/>
<text xml:space="preserve" text-anchor="start" x="5" y="-1988" font-family="Linux libertine" font-size="10.00">Conv2dStaticSamePadding</text>
<text xml:space="preserve" text-anchor="start" x="49.47" y="-1978" font-family="Linux libertine" font-size="10.00">depth:1</text>
<polygon fill="none" stroke="black" points="132.3,-1986 132.3,-2006 175.66,-2006 175.66,-1986 132.3,-1986"/>
<text xml:space="preserve" text-anchor="start" x="141.75" y="-1993" font-family="Linux libertine" font-size="10.00">input:</text>
<polygon fill="none" stroke="black" points="175.66,-1986 175.66,-2006 261.82,-2006 261.82,-1986 175.66,-1986"/>
<text xml:space="preserve" text-anchor="start" x="183.44" y="-1993" font-family="Linux libertine" font-size="10.00">(1, 3, 200, 200) </text>
<polygon fill="none" stroke="black" points="132.3,-1966 132.3,-1986 175.66,-1986 175.66,-1966 132.3,-1966"/>
<text xml:space="preserve" text-anchor="start" x="137.3" y="-1973" font-family="Linux libertine" font-size="10.00">output: </text>
<polygon fill="none" stroke="black" points="175.66,-1966 175.66,-1986 261.82,-1986 261.82,-1966 175.66,-1966"/>
<text xml:space="preserve" text-anchor="start" x="180.66" y="-1973" font-family="Linux libertine" font-size="10.00">(1, 32, 100, 100) </text>
</g>
<!-- 0&#45;&gt;1 -->
<g id="edge1" class="edge">
<title>0&#45;&gt;1</title>
<path fill="none" stroke="black" d="M130.91,-2042.04C130.91,-2034.89 130.91,-2025.89 130.91,-2017.26"/>
<polygon fill="black" stroke="black" points="134.41,-2017.43 130.91,-2007.43 127.41,-2017.43 134.41,-2017.43"/>
</g>
<!-- 2 -->
<g id="node3" class="node">
<title>2</title>
<polygon fill="#c1ffc1" stroke="none" points="231.24,-1930 30.58,-1930 30.58,-1890 231.24,-1890 231.24,-1930"/>
<polygon fill="none" stroke="black" points="30.58,-1890 30.58,-1930 101.72,-1930 101.72,-1890 30.58,-1890"/>
<text xml:space="preserve" text-anchor="start" x="35.58" y="-1912" font-family="Linux libertine" font-size="10.00">BatchNorm2d</text>
<text xml:space="preserve" text-anchor="start" x="49.47" y="-1902" font-family="Linux libertine" font-size="10.00">depth:1</text>
<polygon fill="none" stroke="black" points="101.72,-1910 101.72,-1930 145.08,-1930 145.08,-1910 101.72,-1910"/>
<text xml:space="preserve" text-anchor="start" x="111.17" y="-1917" font-family="Linux libertine" font-size="10.00">input:</text>
<polygon fill="none" stroke="black" points="145.08,-1910 145.08,-1930 231.24,-1930 231.24,-1910 145.08,-1910"/>
<text xml:space="preserve" text-anchor="start" x="150.08" y="-1917" font-family="Linux libertine" font-size="10.00">(1, 32, 100, 100) </text>
<polygon fill="none" stroke="black" points="101.72,-1890 101.72,-1910 145.08,-1910 145.08,-1890 101.72,-1890"/>
<text xml:space="preserve" text-anchor="start" x="106.72" y="-1897" font-family="Linux libertine" font-size="10.00">output: </text>
<polygon fill="none" stroke="black" points="145.08,-1890 145.08,-1910 231.24,-1910 231.24,-1890 145.08,-1890"/>
<text xml:space="preserve" text-anchor="start" x="150.08" y="-1897" font-family="Linux libertine" font-size="10.00">(1, 32, 100, 100) </text>
</g>
<!-- 1&#45;&gt;2 -->
<g id="edge2" class="edge">
<title>1&#45;&gt;2</title>
<path fill="none" stroke="black" d="M130.91,-1966.33C130.91,-1958.76 130.91,-1949.83 130.91,-1941.37"/>
<polygon fill="black" stroke="black" points="134.41,-1941.44 130.91,-1931.44 127.41,-1941.44 134.41,-1941.44"/>
</g>
<!-- 3 -->
<g id="node4" class="node">
<title>3</title>
<polygon fill="#c1ffc1" stroke="none" points="249.85,-1854 11.97,-1854 11.97,-1814 249.85,-1814 249.85,-1854"/>
<polygon fill="none" stroke="black" points="11.97,-1814 11.97,-1854 120.33,-1854 120.33,-1814 11.97,-1814"/>
<text xml:space="preserve" text-anchor="start" x="16.97" y="-1836" font-family="Linux libertine" font-size="10.00">MemoryEfficientSwish</text>
<text xml:space="preserve" text-anchor="start" x="49.47" y="-1826" font-family="Linux libertine" font-size="10.00">depth:1</text>
<polygon fill="none" stroke="black" points="120.33,-1834 120.33,-1854 163.69,-1854 163.69,-1834 120.33,-1834"/>
<text xml:space="preserve" text-anchor="start" x="129.78" y="-1841" font-family="Linux libertine" font-size="10.00">input:</text>
<polygon fill="none" stroke="black" points="163.69,-1834 163.69,-1854 249.85,-1854 249.85,-1834 163.69,-1834"/>
<text xml:space="preserve" text-anchor="start" x="168.69" y="-1841" font-family="Linux libertine" font-size="10.00">(1, 32, 100, 100) </text>
<polygon fill="none" stroke="black" points="120.33,-1814 120.33,-1834 163.69,-1834 163.69,-1814 120.33,-1814"/>
<text xml:space="preserve" text-anchor="start" x="125.33" y="-1821" font-family="Linux libertine" font-size="10.00">output: </text>
<polygon fill="none" stroke="black" points="163.69,-1814 163.69,-1834 249.85,-1834 249.85,-1814 163.69,-1814"/>
<text xml:space="preserve" text-anchor="start" x="168.69" y="-1821" font-family="Linux libertine" font-size="10.00">(1, 32, 100, 100) </text>
</g>
<!-- 2&#45;&gt;3 -->
<g id="edge3" class="edge">
<title>2&#45;&gt;3</title>
<path fill="none" stroke="black" d="M130.91,-1890.33C130.91,-1882.76 130.91,-1873.83 130.91,-1865.37"/>
<polygon fill="black" stroke="black" points="134.41,-1865.44 130.91,-1855.44 127.41,-1865.44 134.41,-1865.44"/>
</g>
<!-- 4 -->
<g id="node5" class="node">
<title>4</title>
<polygon fill="#c1ffc1" stroke="none" points="232.07,-1778 29.75,-1778 29.75,-1738 232.07,-1738 232.07,-1778"/>
<polygon fill="none" stroke="black" points="29.75,-1738 29.75,-1778 102.55,-1778 102.55,-1738 29.75,-1738"/>
<text xml:space="preserve" text-anchor="start" x="34.75" y="-1760" font-family="Linux libertine" font-size="10.00">MBConvBlock</text>
<text xml:space="preserve" text-anchor="start" x="49.47" y="-1750" font-family="Linux libertine" font-size="10.00">depth:1</text>
<polygon fill="none" stroke="black" points="102.55,-1758 102.55,-1778 145.91,-1778 145.91,-1758 102.55,-1758"/>
<text xml:space="preserve" text-anchor="start" x="112" y="-1765" font-family="Linux libertine" font-size="10.00">input:</text>
<polygon fill="none" stroke="black" points="145.91,-1758 145.91,-1778 232.07,-1778 232.07,-1758 145.91,-1758"/>
<text xml:space="preserve" text-anchor="start" x="150.91" y="-1765" font-family="Linux libertine" font-size="10.00">(1, 32, 100, 100) </text>
<polygon fill="none" stroke="black" points="102.55,-1738 102.55,-1758 145.91,-1758 145.91,-1738 102.55,-1738"/>
<text xml:space="preserve" text-anchor="start" x="107.55" y="-1745" font-family="Linux libertine" font-size="10.00">output: </text>
<polygon fill="none" stroke="black" points="145.91,-1738 145.91,-1758 232.07,-1758 232.07,-1738 145.91,-1738"/>
<text xml:space="preserve" text-anchor="start" x="150.91" y="-1745" font-family="Linux libertine" font-size="10.00">(1, 16, 100, 100) </text>
</g>
<!-- 3&#45;&gt;4 -->
<g id="edge4" class="edge">
<title>3&#45;&gt;4</title>
<path fill="none" stroke="black" d="M130.91,-1814.33C130.91,-1806.76 130.91,-1797.83 130.91,-1789.37"/>
<polygon fill="black" stroke="black" points="134.41,-1789.44 130.91,-1779.44 127.41,-1789.44 134.41,-1789.44"/>
</g>
<!-- 5 -->
<g id="node6" class="node">
<title>5</title>
<polygon fill="#c1ffc1" stroke="none" points="232.07,-1702 29.75,-1702 29.75,-1662 232.07,-1662 232.07,-1702"/>
<polygon fill="none" stroke="black" points="29.75,-1662 29.75,-1702 102.55,-1702 102.55,-1662 29.75,-1662"/>
<text xml:space="preserve" text-anchor="start" x="34.75" y="-1684" font-family="Linux libertine" font-size="10.00">MBConvBlock</text>
<text xml:space="preserve" text-anchor="start" x="49.47" y="-1674" font-family="Linux libertine" font-size="10.00">depth:1</text>
<polygon fill="none" stroke="black" points="102.55,-1682 102.55,-1702 145.91,-1702 145.91,-1682 102.55,-1682"/>
<text xml:space="preserve" text-anchor="start" x="112" y="-1689" font-family="Linux libertine" font-size="10.00">input:</text>
<polygon fill="none" stroke="black" points="145.91,-1682 145.91,-1702 232.07,-1702 232.07,-1682 145.91,-1682"/>
<text xml:space="preserve" text-anchor="start" x="150.91" y="-1689" font-family="Linux libertine" font-size="10.00">(1, 16, 100, 100) </text>
<polygon fill="none" stroke="black" points="102.55,-1662 102.55,-1682 145.91,-1682 145.91,-1662 102.55,-1662"/>
<text xml:space="preserve" text-anchor="start" x="107.55" y="-1669" font-family="Linux libertine" font-size="10.00">output: </text>
<polygon fill="none" stroke="black" points="145.91,-1662 145.91,-1682 232.07,-1682 232.07,-1662 145.91,-1662"/>
<text xml:space="preserve" text-anchor="start" x="156.47" y="-1669" font-family="Linux libertine" font-size="10.00">(1, 24, 50, 50) </text>
</g>
<!-- 4&#45;&gt;5 -->
<g id="edge5" class="edge">
<title>4&#45;&gt;5</title>
<path fill="none" stroke="black" d="M130.91,-1738.33C130.91,-1730.76 130.91,-1721.83 130.91,-1713.37"/>
<polygon fill="black" stroke="black" points="134.41,-1713.44 130.91,-1703.44 127.41,-1713.44 134.41,-1713.44"/>
</g>
<!-- 6 -->
<g id="node7" class="node">
<title>6</title>
<polygon fill="#c1ffc1" stroke="none" points="226.51,-1626 35.31,-1626 35.31,-1586 226.51,-1586 226.51,-1626"/>
<polygon fill="none" stroke="black" points="35.31,-1586 35.31,-1626 108.11,-1626 108.11,-1586 35.31,-1586"/>
<text xml:space="preserve" text-anchor="start" x="40.31" y="-1608" font-family="Linux libertine" font-size="10.00">MBConvBlock</text>
<text xml:space="preserve" text-anchor="start" x="55.03" y="-1598" font-family="Linux libertine" font-size="10.00">depth:1</text>
<polygon fill="none" stroke="black" points="108.11,-1606 108.11,-1626 151.47,-1626 151.47,-1606 108.11,-1606"/>
<text xml:space="preserve" text-anchor="start" x="117.56" y="-1613" font-family="Linux libertine" font-size="10.00">input:</text>
<polygon fill="none" stroke="black" points="151.47,-1606 151.47,-1626 226.51,-1626 226.51,-1606 151.47,-1606"/>
<text xml:space="preserve" text-anchor="start" x="156.47" y="-1613" font-family="Linux libertine" font-size="10.00">(1, 24, 50, 50) </text>
<polygon fill="none" stroke="black" points="108.11,-1586 108.11,-1606 151.47,-1606 151.47,-1586 108.11,-1586"/>
<text xml:space="preserve" text-anchor="start" x="113.11" y="-1593" font-family="Linux libertine" font-size="10.00">output: </text>
<polygon fill="none" stroke="black" points="151.47,-1586 151.47,-1606 226.51,-1606 226.51,-1586 151.47,-1586"/>
<text xml:space="preserve" text-anchor="start" x="156.47" y="-1593" font-family="Linux libertine" font-size="10.00">(1, 24, 50, 50) </text>
</g>
<!-- 5&#45;&gt;6 -->
<g id="edge6" class="edge">
<title>5&#45;&gt;6</title>
<path fill="none" stroke="black" d="M130.91,-1662.33C130.91,-1654.76 130.91,-1645.83 130.91,-1637.37"/>
<polygon fill="black" stroke="black" points="134.41,-1637.44 130.91,-1627.44 127.41,-1637.44 134.41,-1637.44"/>
</g>
<!-- 7 -->
<g id="node8" class="node">
<title>7</title>
<polygon fill="#c1ffc1" stroke="none" points="226.51,-1550 35.31,-1550 35.31,-1510 226.51,-1510 226.51,-1550"/>
<polygon fill="none" stroke="black" points="35.31,-1510 35.31,-1550 108.11,-1550 108.11,-1510 35.31,-1510"/>
<text xml:space="preserve" text-anchor="start" x="40.31" y="-1532" font-family="Linux libertine" font-size="10.00">MBConvBlock</text>
<text xml:space="preserve" text-anchor="start" x="55.03" y="-1522" font-family="Linux libertine" font-size="10.00">depth:1</text>
<polygon fill="none" stroke="black" points="108.11,-1530 108.11,-1550 151.47,-1550 151.47,-1530 108.11,-1530"/>
<text xml:space="preserve" text-anchor="start" x="117.56" y="-1537" font-family="Linux libertine" font-size="10.00">input:</text>
<polygon fill="none" stroke="black" points="151.47,-1530 151.47,-1550 226.51,-1550 226.51,-1530 151.47,-1530"/>
<text xml:space="preserve" text-anchor="start" x="156.47" y="-1537" font-family="Linux libertine" font-size="10.00">(1, 24, 50, 50) </text>
<polygon fill="none" stroke="black" points="108.11,-1510 108.11,-1530 151.47,-1530 151.47,-1510 108.11,-1510"/>
<text xml:space="preserve" text-anchor="start" x="113.11" y="-1517" font-family="Linux libertine" font-size="10.00">output: </text>
<polygon fill="none" stroke="black" points="151.47,-1510 151.47,-1530 226.51,-1530 226.51,-1510 151.47,-1510"/>
<text xml:space="preserve" text-anchor="start" x="156.47" y="-1517" font-family="Linux libertine" font-size="10.00">(1, 40, 25, 25) </text>
</g>
<!-- 6&#45;&gt;7 -->
<g id="edge7" class="edge">
<title>6&#45;&gt;7</title>
<path fill="none" stroke="black" d="M130.91,-1586.33C130.91,-1578.76 130.91,-1569.83 130.91,-1561.37"/>
<polygon fill="black" stroke="black" points="134.41,-1561.44 130.91,-1551.44 127.41,-1561.44 134.41,-1561.44"/>
</g>
<!-- 8 -->
<g id="node9" class="node">
<title>8</title>
<polygon fill="#c1ffc1" stroke="none" points="226.51,-1474 35.31,-1474 35.31,-1434 226.51,-1434 226.51,-1474"/>
<polygon fill="none" stroke="black" points="35.31,-1434 35.31,-1474 108.11,-1474 108.11,-1434 35.31,-1434"/>
<text xml:space="preserve" text-anchor="start" x="40.31" y="-1456" font-family="Linux libertine" font-size="10.00">MBConvBlock</text>
<text xml:space="preserve" text-anchor="start" x="55.03" y="-1446" font-family="Linux libertine" font-size="10.00">depth:1</text>
<polygon fill="none" stroke="black" points="108.11,-1454 108.11,-1474 151.47,-1474 151.47,-1454 108.11,-1454"/>
<text xml:space="preserve" text-anchor="start" x="117.56" y="-1461" font-family="Linux libertine" font-size="10.00">input:</text>
<polygon fill="none" stroke="black" points="151.47,-1454 151.47,-1474 226.51,-1474 226.51,-1454 151.47,-1454"/>
<text xml:space="preserve" text-anchor="start" x="156.47" y="-1461" font-family="Linux libertine" font-size="10.00">(1, 40, 25, 25) </text>
<polygon fill="none" stroke="black" points="108.11,-1434 108.11,-1454 151.47,-1454 151.47,-1434 108.11,-1434"/>
<text xml:space="preserve" text-anchor="start" x="113.11" y="-1441" font-family="Linux libertine" font-size="10.00">output: </text>
<polygon fill="none" stroke="black" points="151.47,-1434 151.47,-1454 226.51,-1454 226.51,-1434 151.47,-1434"/>
<text xml:space="preserve" text-anchor="start" x="156.47" y="-1441" font-family="Linux libertine" font-size="10.00">(1, 40, 25, 25) </text>
</g>
<!-- 7&#45;&gt;8 -->
<g id="edge8" class="edge">
<title>7&#45;&gt;8</title>
<path fill="none" stroke="black" d="M130.91,-1510.33C130.91,-1502.76 130.91,-1493.83 130.91,-1485.37"/>
<polygon fill="black" stroke="black" points="134.41,-1485.44 130.91,-1475.44 127.41,-1485.44 134.41,-1485.44"/>
</g>
<!-- 9 -->
<g id="node10" class="node">
<title>9</title>
<polygon fill="#c1ffc1" stroke="none" points="226.51,-1398 35.31,-1398 35.31,-1358 226.51,-1358 226.51,-1398"/>
<polygon fill="none" stroke="black" points="35.31,-1358 35.31,-1398 108.11,-1398 108.11,-1358 35.31,-1358"/>
<text xml:space="preserve" text-anchor="start" x="40.31" y="-1380" font-family="Linux libertine" font-size="10.00">MBConvBlock</text>
<text xml:space="preserve" text-anchor="start" x="55.03" y="-1370" font-family="Linux libertine" font-size="10.00">depth:1</text>
<polygon fill="none" stroke="black" points="108.11,-1378 108.11,-1398 151.47,-1398 151.47,-1378 108.11,-1378"/>
<text xml:space="preserve" text-anchor="start" x="117.56" y="-1385" font-family="Linux libertine" font-size="10.00">input:</text>
<polygon fill="none" stroke="black" points="151.47,-1378 151.47,-1398 226.51,-1398 226.51,-1378 151.47,-1378"/>
<text xml:space="preserve" text-anchor="start" x="156.47" y="-1385" font-family="Linux libertine" font-size="10.00">(1, 40, 25, 25) </text>
<polygon fill="none" stroke="black" points="108.11,-1358 108.11,-1378 151.47,-1378 151.47,-1358 108.11,-1358"/>
<text xml:space="preserve" text-anchor="start" x="113.11" y="-1365" font-family="Linux libertine" font-size="10.00">output: </text>
<polygon fill="none" stroke="black" points="151.47,-1358 151.47,-1378 226.51,-1378 226.51,-1358 151.47,-1358"/>
<text xml:space="preserve" text-anchor="start" x="156.47" y="-1365" font-family="Linux libertine" font-size="10.00">(1, 80, 12, 12) </text>
</g>
<!-- 8&#45;&gt;9 -->
<g id="edge9" class="edge">
<title>8&#45;&gt;9</title>
<path fill="none" stroke="black" d="M130.91,-1434.33C130.91,-1426.76 130.91,-1417.83 130.91,-1409.37"/>
<polygon fill="black" stroke="black" points="134.41,-1409.44 130.91,-1399.44 127.41,-1409.44 134.41,-1409.44"/>
</g>
<!-- 10 -->
<g id="node11" class="node">
<title>10</title>
<polygon fill="#c1ffc1" stroke="none" points="226.51,-1322 35.31,-1322 35.31,-1282 226.51,-1282 226.51,-1322"/>
<polygon fill="none" stroke="black" points="35.31,-1282 35.31,-1322 108.11,-1322 108.11,-1282 35.31,-1282"/>
<text xml:space="preserve" text-anchor="start" x="40.31" y="-1304" font-family="Linux libertine" font-size="10.00">MBConvBlock</text>
<text xml:space="preserve" text-anchor="start" x="55.03" y="-1294" font-family="Linux libertine" font-size="10.00">depth:1</text>
<polygon fill="none" stroke="black" points="108.11,-1302 108.11,-1322 151.47,-1322 151.47,-1302 108.11,-1302"/>
<text xml:space="preserve" text-anchor="start" x="117.56" y="-1309" font-family="Linux libertine" font-size="10.00">input:</text>
<polygon fill="none" stroke="black" points="151.47,-1302 151.47,-1322 226.51,-1322 226.51,-1302 151.47,-1302"/>
<text xml:space="preserve" text-anchor="start" x="156.47" y="-1309" font-family="Linux libertine" font-size="10.00">(1, 80, 12, 12) </text>
<polygon fill="none" stroke="black" points="108.11,-1282 108.11,-1302 151.47,-1302 151.47,-1282 108.11,-1282"/>
<text xml:space="preserve" text-anchor="start" x="113.11" y="-1289" font-family="Linux libertine" font-size="10.00">output: </text>
<polygon fill="none" stroke="black" points="151.47,-1282 151.47,-1302 226.51,-1302 226.51,-1282 151.47,-1282"/>
<text xml:space="preserve" text-anchor="start" x="156.47" y="-1289" font-family="Linux libertine" font-size="10.00">(1, 80, 12, 12) </text>
</g>
<!-- 9&#45;&gt;10 -->
<g id="edge10" class="edge">
<title>9&#45;&gt;10</title>
<path fill="none" stroke="black" d="M130.91,-1358.33C130.91,-1350.76 130.91,-1341.83 130.91,-1333.37"/>
<polygon fill="black" stroke="black" points="134.41,-1333.44 130.91,-1323.44 127.41,-1333.44 134.41,-1333.44"/>
</g>
<!-- 11 -->
<g id="node12" class="node">
<title>11</title>
<polygon fill="#c1ffc1" stroke="none" points="226.51,-1246 35.31,-1246 35.31,-1206 226.51,-1206 226.51,-1246"/>
<polygon fill="none" stroke="black" points="35.31,-1206 35.31,-1246 108.11,-1246 108.11,-1206 35.31,-1206"/>
<text xml:space="preserve" text-anchor="start" x="40.31" y="-1228" font-family="Linux libertine" font-size="10.00">MBConvBlock</text>
<text xml:space="preserve" text-anchor="start" x="55.03" y="-1218" font-family="Linux libertine" font-size="10.00">depth:1</text>
<polygon fill="none" stroke="black" points="108.11,-1226 108.11,-1246 151.47,-1246 151.47,-1226 108.11,-1226"/>
<text xml:space="preserve" text-anchor="start" x="117.56" y="-1233" font-family="Linux libertine" font-size="10.00">input:</text>
<polygon fill="none" stroke="black" points="151.47,-1226 151.47,-1246 226.51,-1246 226.51,-1226 151.47,-1226"/>
<text xml:space="preserve" text-anchor="start" x="156.47" y="-1233" font-family="Linux libertine" font-size="10.00">(1, 80, 12, 12) </text>
<polygon fill="none" stroke="black" points="108.11,-1206 108.11,-1226 151.47,-1226 151.47,-1206 108.11,-1206"/>
<text xml:space="preserve" text-anchor="start" x="113.11" y="-1213" font-family="Linux libertine" font-size="10.00">output: </text>
<polygon fill="none" stroke="black" points="151.47,-1206 151.47,-1226 226.51,-1226 226.51,-1206 151.47,-1206"/>
<text xml:space="preserve" text-anchor="start" x="156.47" y="-1213" font-family="Linux libertine" font-size="10.00">(1, 80, 12, 12) </text>
</g>
<!-- 10&#45;&gt;11 -->
<g id="edge11" class="edge">
<title>10&#45;&gt;11</title>
<path fill="none" stroke="black" d="M130.91,-1282.33C130.91,-1274.76 130.91,-1265.83 130.91,-1257.37"/>
<polygon fill="black" stroke="black" points="134.41,-1257.44 130.91,-1247.44 127.41,-1257.44 134.41,-1257.44"/>
</g>
<!-- 12 -->
<g id="node13" class="node">
<title>12</title>
<polygon fill="#c1ffc1" stroke="none" points="228.92,-1170 32.9,-1170 32.9,-1130 228.92,-1130 228.92,-1170"/>
<polygon fill="none" stroke="black" points="32.9,-1130 32.9,-1170 105.7,-1170 105.7,-1130 32.9,-1130"/>
<text xml:space="preserve" text-anchor="start" x="37.9" y="-1152" font-family="Linux libertine" font-size="10.00">MBConvBlock</text>
<text xml:space="preserve" text-anchor="start" x="52.62" y="-1142" font-family="Linux libertine" font-size="10.00">depth:1</text>
<polygon fill="none" stroke="black" points="105.7,-1150 105.7,-1170 149.06,-1170 149.06,-1150 105.7,-1150"/>
<text xml:space="preserve" text-anchor="start" x="115.15" y="-1157" font-family="Linux libertine" font-size="10.00">input:</text>
<polygon fill="none" stroke="black" points="149.06,-1150 149.06,-1170 228.92,-1170 228.92,-1150 149.06,-1150"/>
<text xml:space="preserve" text-anchor="start" x="156.47" y="-1157" font-family="Linux libertine" font-size="10.00">(1, 80, 12, 12) </text>
<polygon fill="none" stroke="black" points="105.7,-1130 105.7,-1150 149.06,-1150 149.06,-1130 105.7,-1130"/>
<text xml:space="preserve" text-anchor="start" x="110.7" y="-1137" font-family="Linux libertine" font-size="10.00">output: </text>
<polygon fill="none" stroke="black" points="149.06,-1130 149.06,-1150 228.92,-1150 228.92,-1130 149.06,-1130"/>
<text xml:space="preserve" text-anchor="start" x="154.06" y="-1137" font-family="Linux libertine" font-size="10.00">(1, 112, 12, 12) </text>
</g>
<!-- 11&#45;&gt;12 -->
<g id="edge12" class="edge">
<title>11&#45;&gt;12</title>
<path fill="none" stroke="black" d="M130.91,-1206.33C130.91,-1198.76 130.91,-1189.83 130.91,-1181.37"/>
<polygon fill="black" stroke="black" points="134.41,-1181.44 130.91,-1171.44 127.41,-1181.44 134.41,-1181.44"/>
</g>
<!-- 13 -->
<g id="node14" class="node">
<title>13</title>
<polygon fill="#c1ffc1" stroke="none" points="228.92,-1094 32.9,-1094 32.9,-1054 228.92,-1054 228.92,-1094"/>
<polygon fill="none" stroke="black" points="32.9,-1054 32.9,-1094 105.7,-1094 105.7,-1054 32.9,-1054"/>
<text xml:space="preserve" text-anchor="start" x="37.9" y="-1076" font-family="Linux libertine" font-size="10.00">MBConvBlock</text>
<text xml:space="preserve" text-anchor="start" x="52.62" y="-1066" font-family="Linux libertine" font-size="10.00">depth:1</text>
<polygon fill="none" stroke="black" points="105.7,-1074 105.7,-1094 149.06,-1094 149.06,-1074 105.7,-1074"/>
<text xml:space="preserve" text-anchor="start" x="115.15" y="-1081" font-family="Linux libertine" font-size="10.00">input:</text>
<polygon fill="none" stroke="black" points="149.06,-1074 149.06,-1094 228.92,-1094 228.92,-1074 149.06,-1074"/>
<text xml:space="preserve" text-anchor="start" x="154.06" y="-1081" font-family="Linux libertine" font-size="10.00">(1, 112, 12, 12) </text>
<polygon fill="none" stroke="black" points="105.7,-1054 105.7,-1074 149.06,-1074 149.06,-1054 105.7,-1054"/>
<text xml:space="preserve" text-anchor="start" x="110.7" y="-1061" font-family="Linux libertine" font-size="10.00">output: </text>
<polygon fill="none" stroke="black" points="149.06,-1054 149.06,-1074 228.92,-1074 228.92,-1054 149.06,-1054"/>
<text xml:space="preserve" text-anchor="start" x="154.06" y="-1061" font-family="Linux libertine" font-size="10.00">(1, 112, 12, 12) </text>
</g>
<!-- 12&#45;&gt;13 -->
<g id="edge13" class="edge">
<title>12&#45;&gt;13</title>
<path fill="none" stroke="black" d="M130.91,-1130.33C130.91,-1122.76 130.91,-1113.83 130.91,-1105.37"/>
<polygon fill="black" stroke="black" points="134.41,-1105.44 130.91,-1095.44 127.41,-1105.44 134.41,-1105.44"/>
</g>
<!-- 14 -->
<g id="node15" class="node">
<title>14</title>
<polygon fill="#c1ffc1" stroke="none" points="228.92,-1018 32.9,-1018 32.9,-978 228.92,-978 228.92,-1018"/>
<polygon fill="none" stroke="black" points="32.9,-978 32.9,-1018 105.7,-1018 105.7,-978 32.9,-978"/>
<text xml:space="preserve" text-anchor="start" x="37.9" y="-1000" font-family="Linux libertine" font-size="10.00">MBConvBlock</text>
<text xml:space="preserve" text-anchor="start" x="52.62" y="-990" font-family="Linux libertine" font-size="10.00">depth:1</text>
<polygon fill="none" stroke="black" points="105.7,-998 105.7,-1018 149.06,-1018 149.06,-998 105.7,-998"/>
<text xml:space="preserve" text-anchor="start" x="115.15" y="-1005" font-family="Linux libertine" font-size="10.00">input:</text>
<polygon fill="none" stroke="black" points="149.06,-998 149.06,-1018 228.92,-1018 228.92,-998 149.06,-998"/>
<text xml:space="preserve" text-anchor="start" x="154.06" y="-1005" font-family="Linux libertine" font-size="10.00">(1, 112, 12, 12) </text>
<polygon fill="none" stroke="black" points="105.7,-978 105.7,-998 149.06,-998 149.06,-978 105.7,-978"/>
<text xml:space="preserve" text-anchor="start" x="110.7" y="-985" font-family="Linux libertine" font-size="10.00">output: </text>
<polygon fill="none" stroke="black" points="149.06,-978 149.06,-998 228.92,-998 228.92,-978 149.06,-978"/>
<text xml:space="preserve" text-anchor="start" x="154.06" y="-985" font-family="Linux libertine" font-size="10.00">(1, 112, 12, 12) </text>
</g>
<!-- 13&#45;&gt;14 -->
<g id="edge14" class="edge">
<title>13&#45;&gt;14</title>
<path fill="none" stroke="black" d="M130.91,-1054.33C130.91,-1046.76 130.91,-1037.83 130.91,-1029.37"/>
<polygon fill="black" stroke="black" points="134.41,-1029.44 130.91,-1019.44 127.41,-1029.44 134.41,-1029.44"/>
</g>
<!-- 15 -->
<g id="node16" class="node">
<title>15</title>
<polygon fill="#c1ffc1" stroke="none" points="228.92,-942 32.9,-942 32.9,-902 228.92,-902 228.92,-942"/>
<polygon fill="none" stroke="black" points="32.9,-902 32.9,-942 105.7,-942 105.7,-902 32.9,-902"/>
<text xml:space="preserve" text-anchor="start" x="37.9" y="-924" font-family="Linux libertine" font-size="10.00">MBConvBlock</text>
<text xml:space="preserve" text-anchor="start" x="52.62" y="-914" font-family="Linux libertine" font-size="10.00">depth:1</text>
<polygon fill="none" stroke="black" points="105.7,-922 105.7,-942 149.06,-942 149.06,-922 105.7,-922"/>
<text xml:space="preserve" text-anchor="start" x="115.15" y="-929" font-family="Linux libertine" font-size="10.00">input:</text>
<polygon fill="none" stroke="black" points="149.06,-922 149.06,-942 228.92,-942 228.92,-922 149.06,-922"/>
<text xml:space="preserve" text-anchor="start" x="154.06" y="-929" font-family="Linux libertine" font-size="10.00">(1, 112, 12, 12) </text>
<polygon fill="none" stroke="black" points="105.7,-902 105.7,-922 149.06,-922 149.06,-902 105.7,-902"/>
<text xml:space="preserve" text-anchor="start" x="110.7" y="-909" font-family="Linux libertine" font-size="10.00">output: </text>
<polygon fill="none" stroke="black" points="149.06,-902 149.06,-922 228.92,-922 228.92,-902 149.06,-902"/>
<text xml:space="preserve" text-anchor="start" x="159.25" y="-909" font-family="Linux libertine" font-size="10.00">(1, 192, 6, 6) </text>
</g>
<!-- 14&#45;&gt;15 -->
<g id="edge15" class="edge">
<title>14&#45;&gt;15</title>
<path fill="none" stroke="black" d="M130.91,-978.33C130.91,-970.76 130.91,-961.83 130.91,-953.37"/>
<polygon fill="black" stroke="black" points="134.41,-953.44 130.91,-943.44 127.41,-953.44 134.41,-953.44"/>
</g>
<!-- 16 -->
<g id="node17" class="node">
<title>16</title>
<polygon fill="#c1ffc1" stroke="none" points="223.73,-866 38.09,-866 38.09,-826 223.73,-826 223.73,-866"/>
<polygon fill="none" stroke="black" points="38.09,-826 38.09,-866 110.89,-866 110.89,-826 38.09,-826"/>
<text xml:space="preserve" text-anchor="start" x="43.09" y="-848" font-family="Linux libertine" font-size="10.00">MBConvBlock</text>
<text xml:space="preserve" text-anchor="start" x="57.81" y="-838" font-family="Linux libertine" font-size="10.00">depth:1</text>
<polygon fill="none" stroke="black" points="110.89,-846 110.89,-866 154.25,-866 154.25,-846 110.89,-846"/>
<text xml:space="preserve" text-anchor="start" x="120.34" y="-853" font-family="Linux libertine" font-size="10.00">input:</text>
<polygon fill="none" stroke="black" points="154.25,-846 154.25,-866 223.73,-866 223.73,-846 154.25,-846"/>
<text xml:space="preserve" text-anchor="start" x="159.25" y="-853" font-family="Linux libertine" font-size="10.00">(1, 192, 6, 6) </text>
<polygon fill="none" stroke="black" points="110.89,-826 110.89,-846 154.25,-846 154.25,-826 110.89,-826"/>
<text xml:space="preserve" text-anchor="start" x="115.89" y="-833" font-family="Linux libertine" font-size="10.00">output: </text>
<polygon fill="none" stroke="black" points="154.25,-826 154.25,-846 223.73,-846 223.73,-826 154.25,-826"/>
<text xml:space="preserve" text-anchor="start" x="159.25" y="-833" font-family="Linux libertine" font-size="10.00">(1, 192, 6, 6) </text>
</g>
<!-- 15&#45;&gt;16 -->
<g id="edge16" class="edge">
<title>15&#45;&gt;16</title>
<path fill="none" stroke="black" d="M130.91,-902.33C130.91,-894.76 130.91,-885.83 130.91,-877.37"/>
<polygon fill="black" stroke="black" points="134.41,-877.44 130.91,-867.44 127.41,-877.44 134.41,-877.44"/>
</g>
<!-- 17 -->
<g id="node18" class="node">
<title>17</title>
<polygon fill="#c1ffc1" stroke="none" points="223.73,-790 38.09,-790 38.09,-750 223.73,-750 223.73,-790"/>
<polygon fill="none" stroke="black" points="38.09,-750 38.09,-790 110.89,-790 110.89,-750 38.09,-750"/>
<text xml:space="preserve" text-anchor="start" x="43.09" y="-772" font-family="Linux libertine" font-size="10.00">MBConvBlock</text>
<text xml:space="preserve" text-anchor="start" x="57.81" y="-762" font-family="Linux libertine" font-size="10.00">depth:1</text>
<polygon fill="none" stroke="black" points="110.89,-770 110.89,-790 154.25,-790 154.25,-770 110.89,-770"/>
<text xml:space="preserve" text-anchor="start" x="120.34" y="-777" font-family="Linux libertine" font-size="10.00">input:</text>
<polygon fill="none" stroke="black" points="154.25,-770 154.25,-790 223.73,-790 223.73,-770 154.25,-770"/>
<text xml:space="preserve" text-anchor="start" x="159.25" y="-777" font-family="Linux libertine" font-size="10.00">(1, 192, 6, 6) </text>
<polygon fill="none" stroke="black" points="110.89,-750 110.89,-770 154.25,-770 154.25,-750 110.89,-750"/>
<text xml:space="preserve" text-anchor="start" x="115.89" y="-757" font-family="Linux libertine" font-size="10.00">output: </text>
<polygon fill="none" stroke="black" points="154.25,-750 154.25,-770 223.73,-770 223.73,-750 154.25,-750"/>
<text xml:space="preserve" text-anchor="start" x="159.25" y="-757" font-family="Linux libertine" font-size="10.00">(1, 192, 6, 6) </text>
</g>
<!-- 16&#45;&gt;17 -->
<g id="edge17" class="edge">
<title>16&#45;&gt;17</title>
<path fill="none" stroke="black" d="M130.91,-826.33C130.91,-818.76 130.91,-809.83 130.91,-801.37"/>
<polygon fill="black" stroke="black" points="134.41,-801.44 130.91,-791.44 127.41,-801.44 134.41,-801.44"/>
</g>
<!-- 18 -->
<g id="node19" class="node">
<title>18</title>
<polygon fill="#c1ffc1" stroke="none" points="223.73,-714 38.09,-714 38.09,-674 223.73,-674 223.73,-714"/>
<polygon fill="none" stroke="black" points="38.09,-674 38.09,-714 110.89,-714 110.89,-674 38.09,-674"/>
<text xml:space="preserve" text-anchor="start" x="43.09" y="-696" font-family="Linux libertine" font-size="10.00">MBConvBlock</text>
<text xml:space="preserve" text-anchor="start" x="57.81" y="-686" font-family="Linux libertine" font-size="10.00">depth:1</text>
<polygon fill="none" stroke="black" points="110.89,-694 110.89,-714 154.25,-714 154.25,-694 110.89,-694"/>
<text xml:space="preserve" text-anchor="start" x="120.34" y="-701" font-family="Linux libertine" font-size="10.00">input:</text>
<polygon fill="none" stroke="black" points="154.25,-694 154.25,-714 223.73,-714 223.73,-694 154.25,-694"/>
<text xml:space="preserve" text-anchor="start" x="159.25" y="-701" font-family="Linux libertine" font-size="10.00">(1, 192, 6, 6) </text>
<polygon fill="none" stroke="black" points="110.89,-674 110.89,-694 154.25,-694 154.25,-674 110.89,-674"/>
<text xml:space="preserve" text-anchor="start" x="115.89" y="-681" font-family="Linux libertine" font-size="10.00">output: </text>
<polygon fill="none" stroke="black" points="154.25,-674 154.25,-694 223.73,-694 223.73,-674 154.25,-674"/>
<text xml:space="preserve" text-anchor="start" x="159.25" y="-681" font-family="Linux libertine" font-size="10.00">(1, 192, 6, 6) </text>
</g>
<!-- 17&#45;&gt;18 -->
<g id="edge18" class="edge">
<title>17&#45;&gt;18</title>
<path fill="none" stroke="black" d="M130.91,-750.33C130.91,-742.76 130.91,-733.83 130.91,-725.37"/>
<polygon fill="black" stroke="black" points="134.41,-725.44 130.91,-715.44 127.41,-725.44 134.41,-725.44"/>
</g>
<!-- 19 -->
<g id="node20" class="node">
<title>19</title>
<polygon fill="#c1ffc1" stroke="none" points="223.73,-638 38.09,-638 38.09,-598 223.73,-598 223.73,-638"/>
<polygon fill="none" stroke="black" points="38.09,-598 38.09,-638 110.89,-638 110.89,-598 38.09,-598"/>
<text xml:space="preserve" text-anchor="start" x="43.09" y="-620" font-family="Linux libertine" font-size="10.00">MBConvBlock</text>
<text xml:space="preserve" text-anchor="start" x="57.81" y="-610" font-family="Linux libertine" font-size="10.00">depth:1</text>
<polygon fill="none" stroke="black" points="110.89,-618 110.89,-638 154.25,-638 154.25,-618 110.89,-618"/>
<text xml:space="preserve" text-anchor="start" x="120.34" y="-625" font-family="Linux libertine" font-size="10.00">input:</text>
<polygon fill="none" stroke="black" points="154.25,-618 154.25,-638 223.73,-638 223.73,-618 154.25,-618"/>
<text xml:space="preserve" text-anchor="start" x="159.25" y="-625" font-family="Linux libertine" font-size="10.00">(1, 192, 6, 6) </text>
<polygon fill="none" stroke="black" points="110.89,-598 110.89,-618 154.25,-618 154.25,-598 110.89,-598"/>
<text xml:space="preserve" text-anchor="start" x="115.89" y="-605" font-family="Linux libertine" font-size="10.00">output: </text>
<polygon fill="none" stroke="black" points="154.25,-598 154.25,-618 223.73,-618 223.73,-598 154.25,-598"/>
<text xml:space="preserve" text-anchor="start" x="159.25" y="-605" font-family="Linux libertine" font-size="10.00">(1, 320, 6, 6) </text>
</g>
<!-- 18&#45;&gt;19 -->
<g id="edge19" class="edge">
<title>18&#45;&gt;19</title>
<path fill="none" stroke="black" d="M130.91,-674.33C130.91,-666.76 130.91,-657.83 130.91,-649.37"/>
<polygon fill="black" stroke="black" points="134.41,-649.44 130.91,-639.44 127.41,-649.44 134.41,-649.44"/>
</g>
<!-- 20 -->
<g id="node21" class="node">
<title>20</title>
<polygon fill="#c1ffc1" stroke="none" points="256.26,-562 5.56,-562 5.56,-522 256.26,-522 256.26,-562"/>
<polygon fill="none" stroke="black" points="5.56,-522 5.56,-562 137.86,-562 137.86,-522 5.56,-522"/>
<text xml:space="preserve" text-anchor="start" x="10.56" y="-544" font-family="Linux libertine" font-size="10.00">Conv2dStaticSamePadding</text>
<text xml:space="preserve" text-anchor="start" x="55.03" y="-534" font-family="Linux libertine" font-size="10.00">depth:1</text>
<polygon fill="none" stroke="black" points="137.86,-542 137.86,-562 181.22,-562 181.22,-542 137.86,-542"/>
<text xml:space="preserve" text-anchor="start" x="147.31" y="-549" font-family="Linux libertine" font-size="10.00">input:</text>
<polygon fill="none" stroke="black" points="181.22,-542 181.22,-562 256.26,-562 256.26,-542 181.22,-542"/>
<text xml:space="preserve" text-anchor="start" x="189" y="-549" font-family="Linux libertine" font-size="10.00">(1, 320, 6, 6) </text>
<polygon fill="none" stroke="black" points="137.86,-522 137.86,-542 181.22,-542 181.22,-522 137.86,-522"/>
<text xml:space="preserve" text-anchor="start" x="142.86" y="-529" font-family="Linux libertine" font-size="10.00">output: </text>
<polygon fill="none" stroke="black" points="181.22,-522 181.22,-542 256.26,-542 256.26,-522 181.22,-522"/>
<text xml:space="preserve" text-anchor="start" x="186.22" y="-529" font-family="Linux libertine" font-size="10.00">(1, 1280, 6, 6) </text>
</g>
<!-- 19&#45;&gt;20 -->
<g id="edge20" class="edge">
<title>19&#45;&gt;20</title>
<path fill="none" stroke="black" d="M130.91,-598.33C130.91,-590.76 130.91,-581.83 130.91,-573.37"/>
<polygon fill="black" stroke="black" points="134.41,-573.44 130.91,-563.44 127.41,-573.44 134.41,-573.44"/>
</g>
<!-- 21 -->
<g id="node22" class="node">
<title>21</title>
<polygon fill="#c1ffc1" stroke="none" points="225.68,-486 36.14,-486 36.14,-446 225.68,-446 225.68,-486"/>
<polygon fill="none" stroke="black" points="36.14,-446 36.14,-486 107.28,-486 107.28,-446 36.14,-446"/>
<text xml:space="preserve" text-anchor="start" x="41.14" y="-468" font-family="Linux libertine" font-size="10.00">BatchNorm2d</text>
<text xml:space="preserve" text-anchor="start" x="55.03" y="-458" font-family="Linux libertine" font-size="10.00">depth:1</text>
<polygon fill="none" stroke="black" points="107.28,-466 107.28,-486 150.64,-486 150.64,-466 107.28,-466"/>
<text xml:space="preserve" text-anchor="start" x="116.73" y="-473" font-family="Linux libertine" font-size="10.00">input:</text>
<polygon fill="none" stroke="black" points="150.64,-466 150.64,-486 225.68,-486 225.68,-466 150.64,-466"/>
<text xml:space="preserve" text-anchor="start" x="155.64" y="-473" font-family="Linux libertine" font-size="10.00">(1, 1280, 6, 6) </text>
<polygon fill="none" stroke="black" points="107.28,-446 107.28,-466 150.64,-466 150.64,-446 107.28,-446"/>
<text xml:space="preserve" text-anchor="start" x="112.28" y="-453" font-family="Linux libertine" font-size="10.00">output: </text>
<polygon fill="none" stroke="black" points="150.64,-446 150.64,-466 225.68,-466 225.68,-446 150.64,-446"/>
<text xml:space="preserve" text-anchor="start" x="155.64" y="-453" font-family="Linux libertine" font-size="10.00">(1, 1280, 6, 6) </text>
</g>
<!-- 20&#45;&gt;21 -->
<g id="edge21" class="edge">
<title>20&#45;&gt;21</title>
<path fill="none" stroke="black" d="M130.91,-522.33C130.91,-514.76 130.91,-505.83 130.91,-497.37"/>
<polygon fill="black" stroke="black" points="134.41,-497.44 130.91,-487.44 127.41,-497.44 134.41,-497.44"/>
</g>
<!-- 22 -->
<g id="node23" class="node">
<title>22</title>
<polygon fill="#c1ffc1" stroke="none" points="244.29,-410 17.53,-410 17.53,-370 244.29,-370 244.29,-410"/>
<polygon fill="none" stroke="black" points="17.53,-370 17.53,-410 125.89,-410 125.89,-370 17.53,-370"/>
<text xml:space="preserve" text-anchor="start" x="22.53" y="-392" font-family="Linux libertine" font-size="10.00">MemoryEfficientSwish</text>
<text xml:space="preserve" text-anchor="start" x="55.03" y="-382" font-family="Linux libertine" font-size="10.00">depth:1</text>
<polygon fill="none" stroke="black" points="125.89,-390 125.89,-410 169.25,-410 169.25,-390 125.89,-390"/>
<text xml:space="preserve" text-anchor="start" x="135.34" y="-397" font-family="Linux libertine" font-size="10.00">input:</text>
<polygon fill="none" stroke="black" points="169.25,-390 169.25,-410 244.29,-410 244.29,-390 169.25,-390"/>
<text xml:space="preserve" text-anchor="start" x="174.25" y="-397" font-family="Linux libertine" font-size="10.00">(1, 1280, 6, 6) </text>
<polygon fill="none" stroke="black" points="125.89,-370 125.89,-390 169.25,-390 169.25,-370 125.89,-370"/>
<text xml:space="preserve" text-anchor="start" x="130.89" y="-377" font-family="Linux libertine" font-size="10.00">output: </text>
<polygon fill="none" stroke="black" points="169.25,-370 169.25,-390 244.29,-390 244.29,-370 169.25,-370"/>
<text xml:space="preserve" text-anchor="start" x="174.25" y="-377" font-family="Linux libertine" font-size="10.00">(1, 1280, 6, 6) </text>
</g>
<!-- 21&#45;&gt;22 -->
<g id="edge22" class="edge">
<title>21&#45;&gt;22</title>
<path fill="none" stroke="black" d="M130.91,-446.33C130.91,-438.76 130.91,-429.83 130.91,-421.37"/>
<polygon fill="black" stroke="black" points="134.41,-421.44 130.91,-411.44 127.41,-421.44 134.41,-421.44"/>
</g>
<!-- 23 -->
<g id="node24" class="node">
<title>23</title>
<polygon fill="#c1ffc1" stroke="none" points="238.66,-334 23.16,-334 23.16,-294 238.66,-294 238.66,-334"/>
<polygon fill="none" stroke="black" points="23.16,-294 23.16,-334 120.27,-334 120.27,-294 23.16,-294"/>
<text xml:space="preserve" text-anchor="start" x="28.16" y="-316" font-family="Linux libertine" font-size="10.00">AdaptiveAvgPool2d</text>
<text xml:space="preserve" text-anchor="start" x="55.03" y="-306" font-family="Linux libertine" font-size="10.00">depth:1</text>
<polygon fill="none" stroke="black" points="120.27,-314 120.27,-334 163.63,-334 163.63,-314 120.27,-314"/>
<text xml:space="preserve" text-anchor="start" x="129.71" y="-321" font-family="Linux libertine" font-size="10.00">input:</text>
<polygon fill="none" stroke="black" points="163.63,-314 163.63,-334 238.66,-334 238.66,-314 163.63,-314"/>
<text xml:space="preserve" text-anchor="start" x="168.63" y="-321" font-family="Linux libertine" font-size="10.00">(1, 1280, 6, 6) </text>
<polygon fill="none" stroke="black" points="120.27,-294 120.27,-314 163.63,-314 163.63,-294 120.27,-294"/>
<text xml:space="preserve" text-anchor="start" x="125.27" y="-301" font-family="Linux libertine" font-size="10.00">output: </text>
<polygon fill="none" stroke="black" points="163.63,-294 163.63,-314 238.66,-314 238.66,-294 163.63,-294"/>
<text xml:space="preserve" text-anchor="start" x="168.63" y="-301" font-family="Linux libertine" font-size="10.00">(1, 1280, 1, 1) </text>
</g>
<!-- 22&#45;&gt;23 -->
<g id="edge23" class="edge">
<title>22&#45;&gt;23</title>
<path fill="none" stroke="black" d="M130.91,-370.33C130.91,-362.76 130.91,-353.83 130.91,-345.37"/>
<polygon fill="black" stroke="black" points="134.41,-345.44 130.91,-335.44 127.41,-345.44 134.41,-345.44"/>
</g>
<!-- 24 -->
<g id="node25" class="node">
<title>24</title>
<polygon fill="aliceblue" stroke="none" points="211.79,-258 50.03,-258 50.03,-218 211.79,-218 211.79,-258"/>
<polygon fill="none" stroke="black" points="50.03,-218 50.03,-258 93.39,-258 93.39,-218 50.03,-218"/>
<text xml:space="preserve" text-anchor="start" x="58.09" y="-240" font-family="Linux libertine" font-size="10.00">flatten</text>
<text xml:space="preserve" text-anchor="start" x="55.03" y="-230" font-family="Linux libertine" font-size="10.00">depth:1</text>
<polygon fill="none" stroke="black" points="93.39,-238 93.39,-258 136.75,-258 136.75,-238 93.39,-238"/>
<text xml:space="preserve" text-anchor="start" x="102.84" y="-245" font-family="Linux libertine" font-size="10.00">input:</text>
<polygon fill="none" stroke="black" points="136.75,-238 136.75,-258 211.79,-258 211.79,-238 136.75,-238"/>
<text xml:space="preserve" text-anchor="start" x="141.75" y="-245" font-family="Linux libertine" font-size="10.00">(1, 1280, 1, 1) </text>
<polygon fill="none" stroke="black" points="93.39,-218 93.39,-238 136.75,-238 136.75,-218 93.39,-218"/>
<text xml:space="preserve" text-anchor="start" x="98.39" y="-225" font-family="Linux libertine" font-size="10.00">output: </text>
<polygon fill="none" stroke="black" points="136.75,-218 136.75,-238 211.79,-238 211.79,-218 136.75,-218"/>
<text xml:space="preserve" text-anchor="start" x="152.87" y="-225" font-family="Linux libertine" font-size="10.00">(1, 1280) </text>
</g>
<!-- 23&#45;&gt;24 -->
<g id="edge24" class="edge">
<title>23&#45;&gt;24</title>
<path fill="none" stroke="black" d="M130.91,-294.33C130.91,-286.76 130.91,-277.83 130.91,-269.37"/>
<polygon fill="black" stroke="black" points="134.41,-269.44 130.91,-259.44 127.41,-269.44 134.41,-269.44"/>
</g>
<!-- 25 -->
<g id="node26" class="node">
<title>25</title>
<polygon fill="#c1ffc1" stroke="none" points="201.78,-182 60.04,-182 60.04,-142 201.78,-142 201.78,-182"/>
<polygon fill="none" stroke="black" points="60.04,-142 60.04,-182 105.62,-182 105.62,-142 60.04,-142"/>
<text xml:space="preserve" text-anchor="start" x="65.04" y="-164" font-family="Linux libertine" font-size="10.00">Dropout</text>
<text xml:space="preserve" text-anchor="start" x="66.15" y="-154" font-family="Linux libertine" font-size="10.00">depth:1</text>
<polygon fill="none" stroke="black" points="105.62,-162 105.62,-182 148.98,-182 148.98,-162 105.62,-162"/>
<text xml:space="preserve" text-anchor="start" x="115.07" y="-169" font-family="Linux libertine" font-size="10.00">input:</text>
<polygon fill="none" stroke="black" points="148.98,-162 148.98,-182 201.78,-182 201.78,-162 148.98,-162"/>
<text xml:space="preserve" text-anchor="start" x="153.98" y="-169" font-family="Linux libertine" font-size="10.00">(1, 1280) </text>
<polygon fill="none" stroke="black" points="105.62,-142 105.62,-162 148.98,-162 148.98,-142 105.62,-142"/>
<text xml:space="preserve" text-anchor="start" x="110.62" y="-149" font-family="Linux libertine" font-size="10.00">output: </text>
<polygon fill="none" stroke="black" points="148.98,-142 148.98,-162 201.78,-162 201.78,-142 148.98,-142"/>
<text xml:space="preserve" text-anchor="start" x="153.98" y="-149" font-family="Linux libertine" font-size="10.00">(1, 1280) </text>
</g>
<!-- 24&#45;&gt;25 -->
<g id="edge25" class="edge">
<title>24&#45;&gt;25</title>
<path fill="none" stroke="black" d="M130.91,-218.33C130.91,-210.76 130.91,-201.83 130.91,-193.37"/>
<polygon fill="black" stroke="black" points="134.41,-193.44 130.91,-183.44 127.41,-193.44 134.41,-193.44"/>
</g>
<!-- 26 -->
<g id="node27" class="node">
<title>26</title>
<polygon fill="#c1ffc1" stroke="none" points="200.67,-106 61.15,-106 61.15,-66 200.67,-66 200.67,-106"/>
<polygon fill="none" stroke="black" points="61.15,-66 61.15,-106 104.51,-106 104.51,-66 61.15,-66"/>
<text xml:space="preserve" text-anchor="start" x="68.93" y="-88" font-family="Linux libertine" font-size="10.00">Linear</text>
<text xml:space="preserve" text-anchor="start" x="66.15" y="-78" font-family="Linux libertine" font-size="10.00">depth:1</text>
<polygon fill="none" stroke="black" points="104.51,-86 104.51,-106 147.87,-106 147.87,-86 104.51,-86"/>
<text xml:space="preserve" text-anchor="start" x="113.96" y="-93" font-family="Linux libertine" font-size="10.00">input:</text>
<polygon fill="none" stroke="black" points="147.87,-86 147.87,-106 200.67,-106 200.67,-86 147.87,-86"/>
<text xml:space="preserve" text-anchor="start" x="152.87" y="-93" font-family="Linux libertine" font-size="10.00">(1, 1280) </text>
<polygon fill="none" stroke="black" points="104.51,-66 104.51,-86 147.87,-86 147.87,-66 104.51,-66"/>
<text xml:space="preserve" text-anchor="start" x="109.51" y="-73" font-family="Linux libertine" font-size="10.00">output: </text>
<polygon fill="none" stroke="black" points="147.87,-66 147.87,-86 200.67,-86 200.67,-66 147.87,-66"/>
<text xml:space="preserve" text-anchor="start" x="161.21" y="-73" font-family="Linux libertine" font-size="10.00">(1, 5) </text>
</g>
<!-- 25&#45;&gt;26 -->
<g id="edge26" class="edge">
<title>25&#45;&gt;26</title>
<path fill="none" stroke="black" d="M130.91,-142.33C130.91,-134.76 130.91,-125.83 130.91,-117.37"/>
<polygon fill="black" stroke="black" points="134.41,-117.44 130.91,-107.44 127.41,-117.44 134.41,-117.44"/>
</g>
<!-- 27 -->
<g id="node28" class="node">
<title>27</title>
<polygon fill="lightyellow" stroke="none" points="182.04,-30 79.78,-30 79.78,0 182.04,0 182.04,-30"/>
<polygon fill="none" stroke="black" points="79.78,0 79.78,-30 148.7,-30 148.7,0 79.78,0"/>
<text xml:space="preserve" text-anchor="start" x="84.78" y="-17" font-family="Linux libertine" font-size="10.00">output&#45;tensor</text>
<text xml:space="preserve" text-anchor="start" x="97.56" y="-7" font-family="Linux libertine" font-size="10.00">depth:0</text>
<polygon fill="none" stroke="black" points="148.7,0 148.7,-30 182.04,-30 182.04,0 148.7,0"/>
<text xml:space="preserve" text-anchor="start" x="153.7" y="-12" font-family="Linux libertine" font-size="10.00">(1, 5)</text>
</g>
<!-- 26&#45;&gt;27 -->
<g id="edge27" class="edge">
<title>26&#45;&gt;27</title>
<path fill="none" stroke="black" d="M130.91,-66.15C130.91,-58.42 130.91,-49.38 130.91,-41.11"/>
<polygon fill="black" stroke="black" points="134.41,-41.31 130.91,-31.31 127.41,-41.31 134.41,-41.31"/>
</g>
</g>
</svg>
