<?xml version="1.0" encoding="UTF-8" standalone="no"?>
<!DOCTYPE svg PUBLIC "-//W3C//DTD SVG 1.1//EN"
 "http://www.w3.org/Graphics/SVG/1.1/DTD/svg11.dtd">
<!-- Generated by graphviz version 14.0.2 (20251019.1705)
 -->
<!-- Title: enhanced_hybrid_vgg_alexnet_arch Pages: 1 -->
<svg width="3235pt" height="5933pt"
 viewBox="0.00 0.00 3235.00 5933.00" xmlns="http://www.w3.org/2000/svg" xmlns:xlink="http://www.w3.org/1999/xlink">
<g id="graph0" class="graph" transform="scale(8.33333 8.33333) rotate(0) translate(4 708)">
<title>enhanced_hybrid_vgg_alexnet_arch</title>
<polygon fill="white" stroke="none" points="-4,4 -4,-708 384.22,-708 384.22,4 -4,4"/>
<!-- 0 -->
<g id="node1" class="node">
<title>0</title>
<polygon fill="lightyellow" stroke="none" points="259.93,-704 119.3,-704 119.3,-674 259.93,-674 259.93,-704"/>
<polygon fill="none" stroke="black" points="119.3,-674 119.3,-704 182.1,-704 182.1,-674 119.3,-674"/>
<text xml:space="preserve" text-anchor="start" x="124.3" y="-691" font-family="Linux libertine" font-size="10.00">input&#45;tensor</text>
<text xml:space="preserve" text-anchor="start" x="134.02" y="-681" font-family="Linux libertine" font-size="10.00">depth:0</text>
<polygon fill="none" stroke="black" points="182.1,-674 182.1,-704 259.93,-704 259.93,-674 182.1,-674"/>
<text xml:space="preserve" text-anchor="start" x="187.1" y="-686" font-family="Linux libertine" font-size="10.00">(1, 3, 200, 200)</text>
</g>
<!-- 1 -->
<g id="node2" class="node">
<title>1</title>
<polygon fill="#c1ffc1" stroke="none" points="181.22,-638 0,-638 0,-598 181.22,-598 181.22,-638"/>
<polygon fill="none" stroke="black" points="0,-598 0,-638 57.26,-638 57.26,-598 0,-598"/>
<text xml:space="preserve" text-anchor="start" x="5" y="-620" font-family="Linux libertine" font-size="10.00">Sequential</text>
<text xml:space="preserve" text-anchor="start" x="11.95" y="-610" font-family="Linux libertine" font-size="10.00">depth:1</text>
<polygon fill="none" stroke="black" points="57.26,-618 57.26,-638 100.62,-638 100.62,-618 57.26,-618"/>
<text xml:space="preserve" text-anchor="start" x="66.71" y="-625" font-family="Linux libertine" font-size="10.00">input:</text>
<polygon fill="none" stroke="black" points="100.62,-618 100.62,-638 181.22,-638 181.22,-618 100.62,-618"/>
<text xml:space="preserve" text-anchor="start" x="105.62" y="-625" font-family="Linux libertine" font-size="10.00">(1, 3, 200, 200) </text>
<polygon fill="none" stroke="black" points="57.26,-598 57.26,-618 100.62,-618 100.62,-598 57.26,-598"/>
<text xml:space="preserve" text-anchor="start" x="62.26" y="-605" font-family="Linux libertine" font-size="10.00">output: </text>
<polygon fill="none" stroke="black" points="100.62,-598 100.62,-618 181.22,-618 181.22,-598 100.62,-598"/>
<text xml:space="preserve" text-anchor="start" x="105.62" y="-605" font-family="Linux libertine" font-size="10.00">(1, 512, 12, 12) </text>
</g>
<!-- 0&#45;&gt;1 -->
<g id="edge1" class="edge">
<title>0&#45;&gt;1</title>
<path fill="none" stroke="black" d="M169.58,-674.04C157.34,-665.51 141.33,-654.35 126.92,-644.31"/>
<polygon fill="black" stroke="black" points="129.19,-641.62 118.99,-638.78 125.19,-647.37 129.19,-641.62"/>
</g>
<!-- 4 -->
<g id="node5" class="node">
<title>4</title>
<polygon fill="#c1ffc1" stroke="none" points="380.22,-638 199,-638 199,-598 380.22,-598 380.22,-638"/>
<polygon fill="none" stroke="black" points="199,-598 199,-638 256.26,-638 256.26,-598 199,-598"/>
<text xml:space="preserve" text-anchor="start" x="204" y="-620" font-family="Linux libertine" font-size="10.00">Sequential</text>
<text xml:space="preserve" text-anchor="start" x="210.95" y="-610" font-family="Linux libertine" font-size="10.00">depth:1</text>
<polygon fill="none" stroke="black" points="256.26,-618 256.26,-638 299.62,-638 299.62,-618 256.26,-618"/>
<text xml:space="preserve" text-anchor="start" x="265.71" y="-625" font-family="Linux libertine" font-size="10.00">input:</text>
<polygon fill="none" stroke="black" points="299.62,-618 299.62,-638 380.22,-638 380.22,-618 299.62,-618"/>
<text xml:space="preserve" text-anchor="start" x="304.62" y="-625" font-family="Linux libertine" font-size="10.00">(1, 3, 200, 200) </text>
<polygon fill="none" stroke="black" points="256.26,-598 256.26,-618 299.62,-618 299.62,-598 256.26,-598"/>
<text xml:space="preserve" text-anchor="start" x="261.26" y="-605" font-family="Linux libertine" font-size="10.00">output: </text>
<polygon fill="none" stroke="black" points="299.62,-598 299.62,-618 380.22,-618 380.22,-598 299.62,-598"/>
<text xml:space="preserve" text-anchor="start" x="310.18" y="-605" font-family="Linux libertine" font-size="10.00">(1, 256, 5, 5) </text>
</g>
<!-- 0&#45;&gt;4 -->
<g id="edge2" class="edge">
<title>0&#45;&gt;4</title>
<path fill="none" stroke="black" d="M209.85,-674.04C222.21,-665.51 238.38,-654.35 252.93,-644.31"/>
<polygon fill="black" stroke="black" points="254.71,-647.33 260.96,-638.77 250.74,-641.57 254.71,-647.33"/>
</g>
<!-- 2 -->
<g id="node3" class="node">
<title>2</title>
<polygon fill="#c1ffc1" stroke="none" points="174.27,-562 6.95,-562 6.95,-522 174.27,-522 174.27,-562"/>
<polygon fill="none" stroke="black" points="6.95,-522 6.95,-562 50.31,-562 50.31,-522 6.95,-522"/>
<text xml:space="preserve" text-anchor="start" x="14.18" y="-544" font-family="Linux libertine" font-size="10.00">CBAM</text>
<text xml:space="preserve" text-anchor="start" x="11.95" y="-534" font-family="Linux libertine" font-size="10.00">depth:1</text>
<polygon fill="none" stroke="black" points="50.31,-542 50.31,-562 93.67,-562 93.67,-542 50.31,-542"/>
<text xml:space="preserve" text-anchor="start" x="59.76" y="-549" font-family="Linux libertine" font-size="10.00">input:</text>
<polygon fill="none" stroke="black" points="93.67,-542 93.67,-562 174.27,-562 174.27,-542 93.67,-542"/>
<text xml:space="preserve" text-anchor="start" x="98.67" y="-549" font-family="Linux libertine" font-size="10.00">(1, 512, 12, 12) </text>
<polygon fill="none" stroke="black" points="50.31,-522 50.31,-542 93.67,-542 93.67,-522 50.31,-522"/>
<text xml:space="preserve" text-anchor="start" x="55.31" y="-529" font-family="Linux libertine" font-size="10.00">output: </text>
<polygon fill="none" stroke="black" points="93.67,-522 93.67,-542 174.27,-542 174.27,-522 93.67,-522"/>
<text xml:space="preserve" text-anchor="start" x="98.67" y="-529" font-family="Linux libertine" font-size="10.00">(1, 512, 12, 12) </text>
</g>
<!-- 1&#45;&gt;2 -->
<g id="edge3" class="edge">
<title>1&#45;&gt;2</title>
<path fill="none" stroke="black" d="M90.61,-598.33C90.61,-590.76 90.61,-581.83 90.61,-573.37"/>
<polygon fill="black" stroke="black" points="94.11,-573.44 90.61,-563.44 87.11,-573.44 94.11,-573.44"/>
</g>
<!-- 3 -->
<g id="node4" class="node">
<title>3</title>
<polygon fill="#c1ffc1" stroke="none" points="181.22,-410 0,-410 0,-370 181.22,-370 181.22,-410"/>
<polygon fill="none" stroke="black" points="0,-370 0,-410 57.26,-410 57.26,-370 0,-370"/>
<text xml:space="preserve" text-anchor="start" x="5" y="-392" font-family="Linux libertine" font-size="10.00">Sequential</text>
<text xml:space="preserve" text-anchor="start" x="11.95" y="-382" font-family="Linux libertine" font-size="10.00">depth:1</text>
<polygon fill="none" stroke="black" points="57.26,-390 57.26,-410 100.62,-410 100.62,-390 57.26,-390"/>
<text xml:space="preserve" text-anchor="start" x="66.71" y="-397" font-family="Linux libertine" font-size="10.00">input:</text>
<polygon fill="none" stroke="black" points="100.62,-390 100.62,-410 181.22,-410 181.22,-390 100.62,-390"/>
<text xml:space="preserve" text-anchor="start" x="105.62" y="-397" font-family="Linux libertine" font-size="10.00">(1, 512, 12, 12) </text>
<polygon fill="none" stroke="black" points="57.26,-370 57.26,-390 100.62,-390 100.62,-370 57.26,-370"/>
<text xml:space="preserve" text-anchor="start" x="62.26" y="-377" font-family="Linux libertine" font-size="10.00">output: </text>
<polygon fill="none" stroke="black" points="100.62,-370 100.62,-390 181.22,-390 181.22,-370 100.62,-370"/>
<text xml:space="preserve" text-anchor="start" x="105.62" y="-377" font-family="Linux libertine" font-size="10.00">(1, 256, 12, 12) </text>
</g>
<!-- 2&#45;&gt;3 -->
<g id="edge4" class="edge">
<title>2&#45;&gt;3</title>
<path fill="none" stroke="black" d="M90.61,-522C90.61,-496.64 90.61,-451.44 90.61,-421.33"/>
<polygon fill="black" stroke="black" points="94.11,-421.36 90.61,-411.36 87.11,-421.36 94.11,-421.36"/>
</g>
<!-- 8 -->
<g id="node9" class="node">
<title>8</title>
<polygon fill="aliceblue" stroke="none" points="281.33,-334 97.89,-334 97.89,-294 281.33,-294 281.33,-334"/>
<polygon fill="none" stroke="black" points="97.89,-294 97.89,-334 141.25,-334 141.25,-294 97.89,-294"/>
<text xml:space="preserve" text-anchor="start" x="112.9" y="-316" font-family="Linux libertine" font-size="10.00">cat</text>
<text xml:space="preserve" text-anchor="start" x="102.89" y="-306" font-family="Linux libertine" font-size="10.00">depth:1</text>
<polygon fill="none" stroke="black" points="141.25,-314 141.25,-334 184.61,-334 184.61,-314 141.25,-314"/>
<text xml:space="preserve" text-anchor="start" x="150.7" y="-321" font-family="Linux libertine" font-size="10.00">input:</text>
<polygon fill="none" stroke="black" points="184.61,-314 184.61,-334 281.33,-334 281.33,-314 184.61,-314"/>
<text xml:space="preserve" text-anchor="start" x="189.61" y="-321" font-family="Linux libertine" font-size="10.00">2 x (1, 256, 12, 12) </text>
<polygon fill="none" stroke="black" points="141.25,-294 141.25,-314 184.61,-314 184.61,-294 141.25,-294"/>
<text xml:space="preserve" text-anchor="start" x="146.25" y="-301" font-family="Linux libertine" font-size="10.00">output: </text>
<polygon fill="none" stroke="black" points="184.61,-294 184.61,-314 281.33,-314 281.33,-294 184.61,-294"/>
<text xml:space="preserve" text-anchor="start" x="197.67" y="-301" font-family="Linux libertine" font-size="10.00">(1, 512, 12, 12) </text>
</g>
<!-- 3&#45;&gt;8 -->
<g id="edge5" class="edge">
<title>3&#45;&gt;8</title>
<path fill="none" stroke="black" d="M115.85,-370.14C127.83,-361.18 142.34,-350.33 155.31,-340.64"/>
<polygon fill="black" stroke="black" points="157.29,-343.53 163.21,-334.74 153.1,-337.92 157.29,-343.53"/>
</g>
<!-- 5 -->
<g id="node6" class="node">
<title>5</title>
<polygon fill="#c1ffc1" stroke="none" points="367.71,-562 211.51,-562 211.51,-522 367.71,-522 367.71,-562"/>
<polygon fill="none" stroke="black" points="211.51,-522 211.51,-562 254.87,-562 254.87,-522 211.51,-522"/>
<text xml:space="preserve" text-anchor="start" x="218.75" y="-544" font-family="Linux libertine" font-size="10.00">CBAM</text>
<text xml:space="preserve" text-anchor="start" x="216.51" y="-534" font-family="Linux libertine" font-size="10.00">depth:1</text>
<polygon fill="none" stroke="black" points="254.87,-542 254.87,-562 298.23,-562 298.23,-542 254.87,-542"/>
<text xml:space="preserve" text-anchor="start" x="264.32" y="-549" font-family="Linux libertine" font-size="10.00">input:</text>
<polygon fill="none" stroke="black" points="298.23,-542 298.23,-562 367.71,-562 367.71,-542 298.23,-542"/>
<text xml:space="preserve" text-anchor="start" x="303.23" y="-549" font-family="Linux libertine" font-size="10.00">(1, 256, 5, 5) </text>
<polygon fill="none" stroke="black" points="254.87,-522 254.87,-542 298.23,-542 298.23,-522 254.87,-522"/>
<text xml:space="preserve" text-anchor="start" x="259.87" y="-529" font-family="Linux libertine" font-size="10.00">output: </text>
<polygon fill="none" stroke="black" points="298.23,-522 298.23,-542 367.71,-542 367.71,-522 298.23,-522"/>
<text xml:space="preserve" text-anchor="start" x="303.23" y="-529" font-family="Linux libertine" font-size="10.00">(1, 256, 5, 5) </text>
</g>
<!-- 4&#45;&gt;5 -->
<g id="edge6" class="edge">
<title>4&#45;&gt;5</title>
<path fill="none" stroke="black" d="M289.61,-598.33C289.61,-590.76 289.61,-581.83 289.61,-573.37"/>
<polygon fill="black" stroke="black" points="293.11,-573.44 289.61,-563.44 286.11,-573.44 293.11,-573.44"/>
</g>
<!-- 6 -->
<g id="node7" class="node">
<title>6</title>
<polygon fill="#c1ffc1" stroke="none" points="374.66,-486 204.56,-486 204.56,-446 374.66,-446 374.66,-486"/>
<polygon fill="none" stroke="black" points="204.56,-446 204.56,-486 261.82,-486 261.82,-446 204.56,-446"/>
<text xml:space="preserve" text-anchor="start" x="209.56" y="-468" font-family="Linux libertine" font-size="10.00">Sequential</text>
<text xml:space="preserve" text-anchor="start" x="216.51" y="-458" font-family="Linux libertine" font-size="10.00">depth:1</text>
<polygon fill="none" stroke="black" points="261.82,-466 261.82,-486 305.18,-486 305.18,-466 261.82,-466"/>
<text xml:space="preserve" text-anchor="start" x="271.27" y="-473" font-family="Linux libertine" font-size="10.00">input:</text>
<polygon fill="none" stroke="black" points="305.18,-466 305.18,-486 374.66,-486 374.66,-466 305.18,-466"/>
<text xml:space="preserve" text-anchor="start" x="310.18" y="-473" font-family="Linux libertine" font-size="10.00">(1, 256, 5, 5) </text>
<polygon fill="none" stroke="black" points="261.82,-446 261.82,-466 305.18,-466 305.18,-446 261.82,-446"/>
<text xml:space="preserve" text-anchor="start" x="266.82" y="-453" font-family="Linux libertine" font-size="10.00">output: </text>
<polygon fill="none" stroke="black" points="305.18,-446 305.18,-466 374.66,-466 374.66,-446 305.18,-446"/>
<text xml:space="preserve" text-anchor="start" x="310.18" y="-453" font-family="Linux libertine" font-size="10.00">(1, 256, 5, 5) </text>
</g>
<!-- 5&#45;&gt;6 -->
<g id="edge7" class="edge">
<title>5&#45;&gt;6</title>
<path fill="none" stroke="black" d="M289.61,-522.33C289.61,-514.76 289.61,-505.83 289.61,-497.37"/>
<polygon fill="black" stroke="black" points="293.11,-497.44 289.61,-487.44 286.11,-497.44 293.11,-497.44"/>
</g>
<!-- 7 -->
<g id="node8" class="node">
<title>7</title>
<polygon fill="aliceblue" stroke="none" points="379.94,-410 199.28,-410 199.28,-370 379.94,-370 379.94,-410"/>
<polygon fill="none" stroke="black" points="199.28,-370 199.28,-410 255.98,-410 255.98,-370 199.28,-370"/>
<text xml:space="preserve" text-anchor="start" x="204.28" y="-392" font-family="Linux libertine" font-size="10.00">interpolate</text>
<text xml:space="preserve" text-anchor="start" x="210.95" y="-382" font-family="Linux libertine" font-size="10.00">depth:1</text>
<polygon fill="none" stroke="black" points="255.98,-390 255.98,-410 299.34,-410 299.34,-390 255.98,-390"/>
<text xml:space="preserve" text-anchor="start" x="265.43" y="-397" font-family="Linux libertine" font-size="10.00">input:</text>
<polygon fill="none" stroke="black" points="299.34,-390 299.34,-410 379.94,-410 379.94,-390 299.34,-390"/>
<text xml:space="preserve" text-anchor="start" x="309.9" y="-397" font-family="Linux libertine" font-size="10.00">(1, 256, 5, 5) </text>
<polygon fill="none" stroke="black" points="255.98,-370 255.98,-390 299.34,-390 299.34,-370 255.98,-370"/>
<text xml:space="preserve" text-anchor="start" x="260.98" y="-377" font-family="Linux libertine" font-size="10.00">output: </text>
<polygon fill="none" stroke="black" points="299.34,-370 299.34,-390 379.94,-390 379.94,-370 299.34,-370"/>
<text xml:space="preserve" text-anchor="start" x="304.34" y="-377" font-family="Linux libertine" font-size="10.00">(1, 256, 12, 12) </text>
</g>
<!-- 6&#45;&gt;7 -->
<g id="edge8" class="edge">
<title>6&#45;&gt;7</title>
<path fill="none" stroke="black" d="M289.61,-446.33C289.61,-438.76 289.61,-429.83 289.61,-421.37"/>
<polygon fill="black" stroke="black" points="293.11,-421.44 289.61,-411.44 286.11,-421.44 293.11,-421.44"/>
</g>
<!-- 7&#45;&gt;8 -->
<g id="edge9" class="edge">
<title>7&#45;&gt;8</title>
<path fill="none" stroke="black" d="M264.12,-370.14C252.01,-361.18 237.36,-350.33 224.26,-340.64"/>
<polygon fill="black" stroke="black" points="226.39,-337.87 216.27,-334.73 222.23,-343.49 226.39,-337.87"/>
</g>
<!-- 9 -->
<g id="node10" class="node">
<title>9</title>
<polygon fill="#c1ffc1" stroke="none" points="280.22,-258 99,-258 99,-218 280.22,-218 280.22,-258"/>
<polygon fill="none" stroke="black" points="99,-218 99,-258 156.26,-258 156.26,-218 99,-218"/>
<text xml:space="preserve" text-anchor="start" x="104" y="-240" font-family="Linux libertine" font-size="10.00">Sequential</text>
<text xml:space="preserve" text-anchor="start" x="110.95" y="-230" font-family="Linux libertine" font-size="10.00">depth:1</text>
<polygon fill="none" stroke="black" points="156.26,-238 156.26,-258 199.62,-258 199.62,-238 156.26,-238"/>
<text xml:space="preserve" text-anchor="start" x="165.71" y="-245" font-family="Linux libertine" font-size="10.00">input:</text>
<polygon fill="none" stroke="black" points="199.62,-238 199.62,-258 280.22,-258 280.22,-238 199.62,-238"/>
<text xml:space="preserve" text-anchor="start" x="204.62" y="-245" font-family="Linux libertine" font-size="10.00">(1, 512, 12, 12) </text>
<polygon fill="none" stroke="black" points="156.26,-218 156.26,-238 199.62,-238 199.62,-218 156.26,-218"/>
<text xml:space="preserve" text-anchor="start" x="161.26" y="-225" font-family="Linux libertine" font-size="10.00">output: </text>
<polygon fill="none" stroke="black" points="199.62,-218 199.62,-238 280.22,-238 280.22,-218 199.62,-218"/>
<text xml:space="preserve" text-anchor="start" x="210.18" y="-225" font-family="Linux libertine" font-size="10.00">(1, 512, 1, 1) </text>
</g>
<!-- 8&#45;&gt;9 -->
<g id="edge10" class="edge">
<title>8&#45;&gt;9</title>
<path fill="none" stroke="black" d="M189.61,-294.33C189.61,-286.76 189.61,-277.83 189.61,-269.37"/>
<polygon fill="black" stroke="black" points="193.11,-269.44 189.61,-259.44 186.11,-269.44 193.11,-269.44"/>
</g>
<!-- 10 -->
<g id="node11" class="node">
<title>10</title>
<polygon fill="aliceblue" stroke="none" points="267.71,-182 111.51,-182 111.51,-142 267.71,-142 267.71,-182"/>
<polygon fill="none" stroke="black" points="111.51,-142 111.51,-182 154.87,-182 154.87,-142 111.51,-142"/>
<text xml:space="preserve" text-anchor="start" x="119.57" y="-164" font-family="Linux libertine" font-size="10.00">flatten</text>
<text xml:space="preserve" text-anchor="start" x="116.51" y="-154" font-family="Linux libertine" font-size="10.00">depth:1</text>
<polygon fill="none" stroke="black" points="154.87,-162 154.87,-182 198.23,-182 198.23,-162 154.87,-162"/>
<text xml:space="preserve" text-anchor="start" x="164.32" y="-169" font-family="Linux libertine" font-size="10.00">input:</text>
<polygon fill="none" stroke="black" points="198.23,-162 198.23,-182 267.71,-182 267.71,-162 198.23,-162"/>
<text xml:space="preserve" text-anchor="start" x="203.23" y="-169" font-family="Linux libertine" font-size="10.00">(1, 512, 1, 1) </text>
<polygon fill="none" stroke="black" points="154.87,-142 154.87,-162 198.23,-162 198.23,-142 154.87,-142"/>
<text xml:space="preserve" text-anchor="start" x="159.87" y="-149" font-family="Linux libertine" font-size="10.00">output: </text>
<polygon fill="none" stroke="black" points="198.23,-142 198.23,-162 267.71,-162 267.71,-142 198.23,-142"/>
<text xml:space="preserve" text-anchor="start" x="214.35" y="-149" font-family="Linux libertine" font-size="10.00">(1, 512) </text>
</g>
<!-- 9&#45;&gt;10 -->
<g id="edge11" class="edge">
<title>9&#45;&gt;10</title>
<path fill="none" stroke="black" d="M189.61,-218.33C189.61,-210.76 189.61,-201.83 189.61,-193.37"/>
<polygon fill="black" stroke="black" points="193.11,-193.44 189.61,-183.44 186.11,-193.44 193.11,-193.44"/>
</g>
<!-- 11 -->
<g id="node12" class="node">
<title>11</title>
<polygon fill="#c1ffc1" stroke="none" points="263.54,-106 115.68,-106 115.68,-66 263.54,-66 263.54,-106"/>
<polygon fill="none" stroke="black" points="115.68,-66 115.68,-106 172.94,-106 172.94,-66 115.68,-66"/>
<text xml:space="preserve" text-anchor="start" x="120.68" y="-88" font-family="Linux libertine" font-size="10.00">Sequential</text>
<text xml:space="preserve" text-anchor="start" x="127.63" y="-78" font-family="Linux libertine" font-size="10.00">depth:1</text>
<polygon fill="none" stroke="black" points="172.94,-86 172.94,-106 216.3,-106 216.3,-86 172.94,-86"/>
<text xml:space="preserve" text-anchor="start" x="182.39" y="-93" font-family="Linux libertine" font-size="10.00">input:</text>
<polygon fill="none" stroke="black" points="216.3,-86 216.3,-106 263.54,-106 263.54,-86 216.3,-86"/>
<text xml:space="preserve" text-anchor="start" x="221.3" y="-93" font-family="Linux libertine" font-size="10.00">(1, 512) </text>
<polygon fill="none" stroke="black" points="172.94,-66 172.94,-86 216.3,-86 216.3,-66 172.94,-66"/>
<text xml:space="preserve" text-anchor="start" x="177.94" y="-73" font-family="Linux libertine" font-size="10.00">output: </text>
<polygon fill="none" stroke="black" points="216.3,-66 216.3,-86 263.54,-86 263.54,-66 216.3,-66"/>
<text xml:space="preserve" text-anchor="start" x="226.86" y="-73" font-family="Linux libertine" font-size="10.00">(1, 5) </text>
</g>
<!-- 10&#45;&gt;11 -->
<g id="edge12" class="edge">
<title>10&#45;&gt;11</title>
<path fill="none" stroke="black" d="M189.61,-142.33C189.61,-134.76 189.61,-125.83 189.61,-117.37"/>
<polygon fill="black" stroke="black" points="193.11,-117.44 189.61,-107.44 186.11,-117.44 193.11,-117.44"/>
</g>
<!-- 12 -->
<g id="node13" class="node">
<title>12</title>
<polygon fill="lightyellow" stroke="none" points="240.74,-30 138.48,-30 138.48,0 240.74,0 240.74,-30"/>
<polygon fill="none" stroke="black" points="138.48,0 138.48,-30 207.4,-30 207.4,0 138.48,0"/>
<text xml:space="preserve" text-anchor="start" x="143.48" y="-17" font-family="Linux libertine" font-size="10.00">output&#45;tensor</text>
<text xml:space="preserve" text-anchor="start" x="156.26" y="-7" font-family="Linux libertine" font-size="10.00">depth:0</text>
<polygon fill="none" stroke="black" points="207.4,0 207.4,-30 240.74,-30 240.74,0 207.4,0"/>
<text xml:space="preserve" text-anchor="start" x="212.4" y="-12" font-family="Linux libertine" font-size="10.00">(1, 5)</text>
</g>
<!-- 11&#45;&gt;12 -->
<g id="edge13" class="edge">
<title>11&#45;&gt;12</title>
<path fill="none" stroke="black" d="M189.61,-66.15C189.61,-58.42 189.61,-49.38 189.61,-41.11"/>
<polygon fill="black" stroke="black" points="193.11,-41.31 189.61,-31.31 186.11,-41.31 193.11,-41.31"/>
</g>
</g>
</svg>
