<?xml version="1.0" encoding="UTF-8" standalone="no"?>
<!DOCTYPE svg PUBLIC "-//W3C//DTD SVG 1.1//EN"
 "http://www.w3.org/Graphics/SVG/1.1/DTD/svg11.dtd">
<!-- Generated by graphviz version 14.0.2 (20251019.1705)
 -->
<!-- Title: mobilenetv2_arch Pages: 1 -->
<svg width="1929pt" height="3400pt"
 viewBox="0.00 0.00 1929.00 3400.00" xmlns="http://www.w3.org/2000/svg" xmlns:xlink="http://www.w3.org/1999/xlink">
<g id="graph0" class="graph" transform="scale(8.33333 8.33333) rotate(0) translate(4 404)">
<title>mobilenetv2_arch</title>
<polygon fill="white" stroke="none" points="-4,4 -4,-404 227.48,-404 227.48,4 -4,4"/>
<!-- 0 -->
<g id="node1" class="node">
<title>0</title>
<polygon fill="lightyellow" stroke="none" points="182.06,-400 41.43,-400 41.43,-370 182.06,-370 182.06,-400"/>
<polygon fill="none" stroke="black" points="41.43,-370 41.43,-400 104.23,-400 104.23,-370 41.43,-370"/>
<text xml:space="preserve" text-anchor="start" x="46.43" y="-387" font-family="Linux libertine" font-size="10.00">input&#45;tensor</text>
<text xml:space="preserve" text-anchor="start" x="56.15" y="-377" font-family="Linux libertine" font-size="10.00">depth:0</text>
<polygon fill="none" stroke="black" points="104.23,-370 104.23,-400 182.06,-400 182.06,-370 104.23,-370"/>
<text xml:space="preserve" text-anchor="start" x="109.23" y="-382" font-family="Linux libertine" font-size="10.00">(1, 3, 200, 200)</text>
</g>
<!-- 1 -->
<g id="node2" class="node">
<title>1</title>
<polygon fill="#c1ffc1" stroke="none" points="202.35,-334 21.13,-334 21.13,-294 202.35,-294 202.35,-334"/>
<polygon fill="none" stroke="black" points="21.13,-294 21.13,-334 78.39,-334 78.39,-294 21.13,-294"/>
<text xml:space="preserve" text-anchor="start" x="26.13" y="-316" font-family="Linux libertine" font-size="10.00">Sequential</text>
<text xml:space="preserve" text-anchor="start" x="33.08" y="-306" font-family="Linux libertine" font-size="10.00">depth:1</text>
<polygon fill="none" stroke="black" points="78.39,-314 78.39,-334 121.75,-334 121.75,-314 78.39,-314"/>
<text xml:space="preserve" text-anchor="start" x="87.84" y="-321" font-family="Linux libertine" font-size="10.00">input:</text>
<polygon fill="none" stroke="black" points="121.75,-314 121.75,-334 202.35,-334 202.35,-314 121.75,-314"/>
<text xml:space="preserve" text-anchor="start" x="126.75" y="-321" font-family="Linux libertine" font-size="10.00">(1, 3, 200, 200) </text>
<polygon fill="none" stroke="black" points="78.39,-294 78.39,-314 121.75,-314 121.75,-294 78.39,-294"/>
<text xml:space="preserve" text-anchor="start" x="83.39" y="-301" font-family="Linux libertine" font-size="10.00">output: </text>
<polygon fill="none" stroke="black" points="121.75,-294 121.75,-314 202.35,-314 202.35,-294 121.75,-294"/>
<text xml:space="preserve" text-anchor="start" x="129.53" y="-301" font-family="Linux libertine" font-size="10.00">(1, 1280, 7, 7) </text>
</g>
<!-- 0&#45;&gt;1 -->
<g id="edge1" class="edge">
<title>0&#45;&gt;1</title>
<path fill="none" stroke="black" d="M111.74,-370.04C111.74,-362.89 111.74,-353.89 111.74,-345.26"/>
<polygon fill="black" stroke="black" points="115.24,-345.43 111.74,-335.43 108.24,-345.43 115.24,-345.43"/>
</g>
<!-- 2 -->
<g id="node3" class="node">
<title>2</title>
<polygon fill="aliceblue" stroke="none" points="223.48,-258 0,-258 0,-218 223.48,-218 223.48,-258"/>
<polygon fill="none" stroke="black" points="0,-218 0,-258 105.08,-258 105.08,-218 0,-218"/>
<text xml:space="preserve" text-anchor="start" x="5" y="-240" font-family="Linux libertine" font-size="10.00">adaptive_avg_pool2d</text>
<text xml:space="preserve" text-anchor="start" x="35.86" y="-230" font-family="Linux libertine" font-size="10.00">depth:1</text>
<polygon fill="none" stroke="black" points="105.08,-238 105.08,-258 148.44,-258 148.44,-238 105.08,-238"/>
<text xml:space="preserve" text-anchor="start" x="114.53" y="-245" font-family="Linux libertine" font-size="10.00">input:</text>
<polygon fill="none" stroke="black" points="148.44,-238 148.44,-258 223.48,-258 223.48,-238 148.44,-238"/>
<text xml:space="preserve" text-anchor="start" x="153.44" y="-245" font-family="Linux libertine" font-size="10.00">(1, 1280, 7, 7) </text>
<polygon fill="none" stroke="black" points="105.08,-218 105.08,-238 148.44,-238 148.44,-218 105.08,-218"/>
<text xml:space="preserve" text-anchor="start" x="110.08" y="-225" font-family="Linux libertine" font-size="10.00">output: </text>
<polygon fill="none" stroke="black" points="148.44,-218 148.44,-238 223.48,-238 223.48,-218 148.44,-218"/>
<text xml:space="preserve" text-anchor="start" x="153.44" y="-225" font-family="Linux libertine" font-size="10.00">(1, 1280, 1, 1) </text>
</g>
<!-- 1&#45;&gt;2 -->
<g id="edge2" class="edge">
<title>1&#45;&gt;2</title>
<path fill="none" stroke="black" d="M111.74,-294.33C111.74,-286.76 111.74,-277.83 111.74,-269.37"/>
<polygon fill="black" stroke="black" points="115.24,-269.44 111.74,-259.44 108.24,-269.44 115.24,-269.44"/>
</g>
<!-- 3 -->
<g id="node4" class="node">
<title>3</title>
<polygon fill="aliceblue" stroke="none" points="192.62,-182 30.86,-182 30.86,-142 192.62,-142 192.62,-182"/>
<polygon fill="none" stroke="black" points="30.86,-142 30.86,-182 74.22,-182 74.22,-142 30.86,-142"/>
<text xml:space="preserve" text-anchor="start" x="38.92" y="-164" font-family="Linux libertine" font-size="10.00">flatten</text>
<text xml:space="preserve" text-anchor="start" x="35.86" y="-154" font-family="Linux libertine" font-size="10.00">depth:1</text>
<polygon fill="none" stroke="black" points="74.22,-162 74.22,-182 117.58,-182 117.58,-162 74.22,-162"/>
<text xml:space="preserve" text-anchor="start" x="83.67" y="-169" font-family="Linux libertine" font-size="10.00">input:</text>
<polygon fill="none" stroke="black" points="117.58,-162 117.58,-182 192.62,-182 192.62,-162 117.58,-162"/>
<text xml:space="preserve" text-anchor="start" x="122.58" y="-169" font-family="Linux libertine" font-size="10.00">(1, 1280, 1, 1) </text>
<polygon fill="none" stroke="black" points="74.22,-142 74.22,-162 117.58,-162 117.58,-142 74.22,-142"/>
<text xml:space="preserve" text-anchor="start" x="79.22" y="-149" font-family="Linux libertine" font-size="10.00">output: </text>
<polygon fill="none" stroke="black" points="117.58,-142 117.58,-162 192.62,-162 192.62,-142 117.58,-142"/>
<text xml:space="preserve" text-anchor="start" x="133.7" y="-149" font-family="Linux libertine" font-size="10.00">(1, 1280) </text>
</g>
<!-- 2&#45;&gt;3 -->
<g id="edge3" class="edge">
<title>2&#45;&gt;3</title>
<path fill="none" stroke="black" d="M111.74,-218.33C111.74,-210.76 111.74,-201.83 111.74,-193.37"/>
<polygon fill="black" stroke="black" points="115.24,-193.44 111.74,-183.44 108.24,-193.44 115.24,-193.44"/>
</g>
<!-- 4 -->
<g id="node5" class="node">
<title>4</title>
<polygon fill="#c1ffc1" stroke="none" points="188.45,-106 35.03,-106 35.03,-66 188.45,-66 188.45,-106"/>
<polygon fill="none" stroke="black" points="35.03,-66 35.03,-106 92.29,-106 92.29,-66 35.03,-66"/>
<text xml:space="preserve" text-anchor="start" x="40.03" y="-88" font-family="Linux libertine" font-size="10.00">Sequential</text>
<text xml:space="preserve" text-anchor="start" x="46.98" y="-78" font-family="Linux libertine" font-size="10.00">depth:1</text>
<polygon fill="none" stroke="black" points="92.29,-86 92.29,-106 135.65,-106 135.65,-86 92.29,-86"/>
<text xml:space="preserve" text-anchor="start" x="101.74" y="-93" font-family="Linux libertine" font-size="10.00">input:</text>
<polygon fill="none" stroke="black" points="135.65,-86 135.65,-106 188.45,-106 188.45,-86 135.65,-86"/>
<text xml:space="preserve" text-anchor="start" x="140.65" y="-93" font-family="Linux libertine" font-size="10.00">(1, 1280) </text>
<polygon fill="none" stroke="black" points="92.29,-66 92.29,-86 135.65,-86 135.65,-66 92.29,-66"/>
<text xml:space="preserve" text-anchor="start" x="97.29" y="-73" font-family="Linux libertine" font-size="10.00">output: </text>
<polygon fill="none" stroke="black" points="135.65,-66 135.65,-86 188.45,-86 188.45,-66 135.65,-66"/>
<text xml:space="preserve" text-anchor="start" x="148.99" y="-73" font-family="Linux libertine" font-size="10.00">(1, 5) </text>
</g>
<!-- 3&#45;&gt;4 -->
<g id="edge4" class="edge">
<title>3&#45;&gt;4</title>
<path fill="none" stroke="black" d="M111.74,-142.33C111.74,-134.76 111.74,-125.83 111.74,-117.37"/>
<polygon fill="black" stroke="black" points="115.24,-117.44 111.74,-107.44 108.24,-117.44 115.24,-117.44"/>
</g>
<!-- 5 -->
<g id="node6" class="node">
<title>5</title>
<polygon fill="lightyellow" stroke="none" points="162.87,-30 60.61,-30 60.61,0 162.87,0 162.87,-30"/>
<polygon fill="none" stroke="black" points="60.61,0 60.61,-30 129.53,-30 129.53,0 60.61,0"/>
<text xml:space="preserve" text-anchor="start" x="65.61" y="-17" font-family="Linux libertine" font-size="10.00">output&#45;tensor</text>
<text xml:space="preserve" text-anchor="start" x="78.39" y="-7" font-family="Linux libertine" font-size="10.00">depth:0</text>
<polygon fill="none" stroke="black" points="129.53,0 129.53,-30 162.87,-30 162.87,0 129.53,0"/>
<text xml:space="preserve" text-anchor="start" x="134.53" y="-12" font-family="Linux libertine" font-size="10.00">(1, 5)</text>
</g>
<!-- 4&#45;&gt;5 -->
<g id="edge5" class="edge">
<title>4&#45;&gt;5</title>
<path fill="none" stroke="black" d="M111.74,-66.15C111.74,-58.42 111.74,-49.38 111.74,-41.11"/>
<polygon fill="black" stroke="black" points="115.24,-41.31 111.74,-31.31 108.24,-41.31 115.24,-41.31"/>
</g>
</g>
</svg>
