<?xml version="1.0" encoding="UTF-8" standalone="no"?>
<!DOCTYPE svg PUBLIC "-//W3C//DTD SVG 1.1//EN"
 "http://www.w3.org/Graphics/SVG/1.1/DTD/svg11.dtd">
<!-- Generated by graphviz version 14.0.2 (20251019.1705)
 -->
<!-- Title: resnet18_arch Pages: 1 -->
<svg width="1669pt" height="7200pt"
 viewBox="0.00 0.00 1669.00 7200.00" xmlns="http://www.w3.org/2000/svg" xmlns:xlink="http://www.w3.org/1999/xlink">
<g id="graph0" class="graph" transform="scale(7.65957 7.65957) rotate(0) translate(4 936)">
<title>resnet18_arch</title>
<polygon fill="white" stroke="none" points="-4,4 -4,-936 213.95,-936 213.95,4 -4,4"/>
<!-- 0 -->
<g id="node1" class="node">
<title>0</title>
<polygon fill="lightyellow" stroke="none" points="175.29,-932 34.66,-932 34.66,-902 175.29,-902 175.29,-932"/>
<polygon fill="none" stroke="black" points="34.66,-902 34.66,-932 97.47,-932 97.47,-902 34.66,-902"/>
<text xml:space="preserve" text-anchor="start" x="39.66" y="-919" font-family="Linux libertine" font-size="10.00">input&#45;tensor</text>
<text xml:space="preserve" text-anchor="start" x="49.38" y="-909" font-family="Linux libertine" font-size="10.00">depth:0</text>
<polygon fill="none" stroke="black" points="97.47,-902 97.47,-932 175.29,-932 175.29,-902 97.47,-902"/>
<text xml:space="preserve" text-anchor="start" x="102.47" y="-914" font-family="Linux libertine" font-size="10.00">(1, 3, 200, 200)</text>
</g>
<!-- 1 -->
<g id="node2" class="node">
<title>1</title>
<polygon fill="#c1ffc1" stroke="none" points="191.97,-866 17.98,-866 17.98,-826 191.97,-826 191.97,-866"/>
<polygon fill="none" stroke="black" points="17.98,-826 17.98,-866 62.45,-866 62.45,-826 17.98,-826"/>
<text xml:space="preserve" text-anchor="start" x="22.98" y="-848" font-family="Linux libertine" font-size="10.00">Conv2d</text>
<text xml:space="preserve" text-anchor="start" x="23.53" y="-838" font-family="Linux libertine" font-size="10.00">depth:1</text>
<polygon fill="none" stroke="black" points="62.45,-846 62.45,-866 105.81,-866 105.81,-846 62.45,-846"/>
<text xml:space="preserve" text-anchor="start" x="71.89" y="-853" font-family="Linux libertine" font-size="10.00">input:</text>
<polygon fill="none" stroke="black" points="105.81,-846 105.81,-866 191.97,-866 191.97,-846 105.81,-846"/>
<text xml:space="preserve" text-anchor="start" x="113.59" y="-853" font-family="Linux libertine" font-size="10.00">(1, 3, 200, 200) </text>
<polygon fill="none" stroke="black" points="62.45,-826 62.45,-846 105.81,-846 105.81,-826 62.45,-826"/>
<text xml:space="preserve" text-anchor="start" x="67.45" y="-833" font-family="Linux libertine" font-size="10.00">output: </text>
<polygon fill="none" stroke="black" points="105.81,-826 105.81,-846 191.97,-846 191.97,-826 105.81,-826"/>
<text xml:space="preserve" text-anchor="start" x="110.81" y="-833" font-family="Linux libertine" font-size="10.00">(1, 64, 100, 100) </text>
</g>
<!-- 0&#45;&gt;1 -->
<g id="edge1" class="edge">
<title>0&#45;&gt;1</title>
<path fill="none" stroke="black" d="M104.97,-902.04C104.97,-894.89 104.97,-885.89 104.97,-877.26"/>
<polygon fill="black" stroke="black" points="108.47,-877.43 104.97,-867.43 101.47,-877.43 108.47,-877.43"/>
</g>
<!-- 2 -->
<g id="node3" class="node">
<title>2</title>
<polygon fill="#c1ffc1" stroke="none" points="205.3,-790 4.64,-790 4.64,-750 205.3,-750 205.3,-790"/>
<polygon fill="none" stroke="black" points="4.64,-750 4.64,-790 75.78,-790 75.78,-750 4.64,-750"/>
<text xml:space="preserve" text-anchor="start" x="9.64" y="-772" font-family="Linux libertine" font-size="10.00">BatchNorm2d</text>
<text xml:space="preserve" text-anchor="start" x="23.53" y="-762" font-family="Linux libertine" font-size="10.00">depth:1</text>
<polygon fill="none" stroke="black" points="75.78,-770 75.78,-790 119.14,-790 119.14,-770 75.78,-770"/>
<text xml:space="preserve" text-anchor="start" x="85.23" y="-777" font-family="Linux libertine" font-size="10.00">input:</text>
<polygon fill="none" stroke="black" points="119.14,-770 119.14,-790 205.3,-790 205.3,-770 119.14,-770"/>
<text xml:space="preserve" text-anchor="start" x="124.14" y="-777" font-family="Linux libertine" font-size="10.00">(1, 64, 100, 100) </text>
<polygon fill="none" stroke="black" points="75.78,-750 75.78,-770 119.14,-770 119.14,-750 75.78,-750"/>
<text xml:space="preserve" text-anchor="start" x="80.78" y="-757" font-family="Linux libertine" font-size="10.00">output: </text>
<polygon fill="none" stroke="black" points="119.14,-750 119.14,-770 205.3,-770 205.3,-750 119.14,-750"/>
<text xml:space="preserve" text-anchor="start" x="124.14" y="-757" font-family="Linux libertine" font-size="10.00">(1, 64, 100, 100) </text>
</g>
<!-- 1&#45;&gt;2 -->
<g id="edge2" class="edge">
<title>1&#45;&gt;2</title>
<path fill="none" stroke="black" d="M104.97,-826.33C104.97,-818.76 104.97,-809.83 104.97,-801.37"/>
<polygon fill="black" stroke="black" points="108.47,-801.44 104.97,-791.44 101.47,-801.44 108.47,-801.44"/>
</g>
<!-- 3 -->
<g id="node4" class="node">
<title>3</title>
<polygon fill="#c1ffc1" stroke="none" points="191.42,-714 18.53,-714 18.53,-674 191.42,-674 191.42,-714"/>
<polygon fill="none" stroke="black" points="18.53,-674 18.53,-714 61.89,-714 61.89,-674 18.53,-674"/>
<text xml:space="preserve" text-anchor="start" x="27.43" y="-696" font-family="Linux libertine" font-size="10.00">ReLU</text>
<text xml:space="preserve" text-anchor="start" x="23.53" y="-686" font-family="Linux libertine" font-size="10.00">depth:1</text>
<polygon fill="none" stroke="black" points="61.89,-694 61.89,-714 105.25,-714 105.25,-694 61.89,-694"/>
<text xml:space="preserve" text-anchor="start" x="71.34" y="-701" font-family="Linux libertine" font-size="10.00">input:</text>
<polygon fill="none" stroke="black" points="105.25,-694 105.25,-714 191.42,-714 191.42,-694 105.25,-694"/>
<text xml:space="preserve" text-anchor="start" x="110.25" y="-701" font-family="Linux libertine" font-size="10.00">(1, 64, 100, 100) </text>
<polygon fill="none" stroke="black" points="61.89,-674 61.89,-694 105.25,-694 105.25,-674 61.89,-674"/>
<text xml:space="preserve" text-anchor="start" x="66.89" y="-681" font-family="Linux libertine" font-size="10.00">output: </text>
<polygon fill="none" stroke="black" points="105.25,-674 105.25,-694 191.42,-694 191.42,-674 105.25,-674"/>
<text xml:space="preserve" text-anchor="start" x="110.25" y="-681" font-family="Linux libertine" font-size="10.00">(1, 64, 100, 100) </text>
</g>
<!-- 2&#45;&gt;3 -->
<g id="edge3" class="edge">
<title>2&#45;&gt;3</title>
<path fill="none" stroke="black" d="M104.97,-750.33C104.97,-742.76 104.97,-733.83 104.97,-725.37"/>
<polygon fill="black" stroke="black" points="108.47,-725.44 104.97,-715.44 101.47,-725.44 108.47,-725.44"/>
</g>
<!-- 4 -->
<g id="node5" class="node">
<title>4</title>
<polygon fill="#c1ffc1" stroke="none" points="199.75,-638 10.2,-638 10.2,-598 199.75,-598 199.75,-638"/>
<polygon fill="none" stroke="black" points="10.2,-598 10.2,-638 70.23,-638 70.23,-598 10.2,-598"/>
<text xml:space="preserve" text-anchor="start" x="15.2" y="-620" font-family="Linux libertine" font-size="10.00">MaxPool2d</text>
<text xml:space="preserve" text-anchor="start" x="23.53" y="-610" font-family="Linux libertine" font-size="10.00">depth:1</text>
<polygon fill="none" stroke="black" points="70.23,-618 70.23,-638 113.59,-638 113.59,-618 70.23,-618"/>
<text xml:space="preserve" text-anchor="start" x="79.68" y="-625" font-family="Linux libertine" font-size="10.00">input:</text>
<polygon fill="none" stroke="black" points="113.59,-618 113.59,-638 199.75,-638 199.75,-618 113.59,-618"/>
<text xml:space="preserve" text-anchor="start" x="118.59" y="-625" font-family="Linux libertine" font-size="10.00">(1, 64, 100, 100) </text>
<polygon fill="none" stroke="black" points="70.23,-598 70.23,-618 113.59,-618 113.59,-598 70.23,-598"/>
<text xml:space="preserve" text-anchor="start" x="75.23" y="-605" font-family="Linux libertine" font-size="10.00">output: </text>
<polygon fill="none" stroke="black" points="113.59,-598 113.59,-618 199.75,-618 199.75,-598 113.59,-598"/>
<text xml:space="preserve" text-anchor="start" x="124.15" y="-605" font-family="Linux libertine" font-size="10.00">(1, 64, 50, 50) </text>
</g>
<!-- 3&#45;&gt;4 -->
<g id="edge4" class="edge">
<title>3&#45;&gt;4</title>
<path fill="none" stroke="black" d="M104.97,-674.33C104.97,-666.76 104.97,-657.83 104.97,-649.37"/>
<polygon fill="black" stroke="black" points="108.47,-649.44 104.97,-639.44 101.47,-649.44 108.47,-649.44"/>
</g>
<!-- 5 -->
<g id="node6" class="node">
<title>5</title>
<polygon fill="#c1ffc1" stroke="none" points="192.8,-562 17.14,-562 17.14,-522 192.8,-522 192.8,-562"/>
<polygon fill="none" stroke="black" points="17.14,-522 17.14,-562 74.4,-562 74.4,-522 17.14,-522"/>
<text xml:space="preserve" text-anchor="start" x="22.14" y="-544" font-family="Linux libertine" font-size="10.00">Sequential</text>
<text xml:space="preserve" text-anchor="start" x="29.09" y="-534" font-family="Linux libertine" font-size="10.00">depth:1</text>
<polygon fill="none" stroke="black" points="74.4,-542 74.4,-562 117.76,-562 117.76,-542 74.4,-542"/>
<text xml:space="preserve" text-anchor="start" x="83.85" y="-549" font-family="Linux libertine" font-size="10.00">input:</text>
<polygon fill="none" stroke="black" points="117.76,-542 117.76,-562 192.8,-562 192.8,-542 117.76,-542"/>
<text xml:space="preserve" text-anchor="start" x="122.76" y="-549" font-family="Linux libertine" font-size="10.00">(1, 64, 50, 50) </text>
<polygon fill="none" stroke="black" points="74.4,-522 74.4,-542 117.76,-542 117.76,-522 74.4,-522"/>
<text xml:space="preserve" text-anchor="start" x="79.4" y="-529" font-family="Linux libertine" font-size="10.00">output: </text>
<polygon fill="none" stroke="black" points="117.76,-522 117.76,-542 192.8,-542 192.8,-522 117.76,-522"/>
<text xml:space="preserve" text-anchor="start" x="122.76" y="-529" font-family="Linux libertine" font-size="10.00">(1, 64, 50, 50) </text>
</g>
<!-- 4&#45;&gt;5 -->
<g id="edge5" class="edge">
<title>4&#45;&gt;5</title>
<path fill="none" stroke="black" d="M104.97,-598.33C104.97,-590.76 104.97,-581.83 104.97,-573.37"/>
<polygon fill="black" stroke="black" points="108.47,-573.44 104.97,-563.44 101.47,-573.44 108.47,-573.44"/>
</g>
<!-- 6 -->
<g id="node7" class="node">
<title>6</title>
<polygon fill="#c1ffc1" stroke="none" points="195.58,-486 14.36,-486 14.36,-446 195.58,-446 195.58,-486"/>
<polygon fill="none" stroke="black" points="14.36,-446 14.36,-486 71.62,-486 71.62,-446 14.36,-446"/>
<text xml:space="preserve" text-anchor="start" x="19.36" y="-468" font-family="Linux libertine" font-size="10.00">Sequential</text>
<text xml:space="preserve" text-anchor="start" x="26.31" y="-458" font-family="Linux libertine" font-size="10.00">depth:1</text>
<polygon fill="none" stroke="black" points="71.62,-466 71.62,-486 114.98,-486 114.98,-466 71.62,-466"/>
<text xml:space="preserve" text-anchor="start" x="81.07" y="-473" font-family="Linux libertine" font-size="10.00">input:</text>
<polygon fill="none" stroke="black" points="114.98,-466 114.98,-486 195.58,-486 195.58,-466 114.98,-466"/>
<text xml:space="preserve" text-anchor="start" x="122.76" y="-473" font-family="Linux libertine" font-size="10.00">(1, 64, 50, 50) </text>
<polygon fill="none" stroke="black" points="71.62,-446 71.62,-466 114.98,-466 114.98,-446 71.62,-446"/>
<text xml:space="preserve" text-anchor="start" x="76.62" y="-453" font-family="Linux libertine" font-size="10.00">output: </text>
<polygon fill="none" stroke="black" points="114.98,-446 114.98,-466 195.58,-466 195.58,-446 114.98,-446"/>
<text xml:space="preserve" text-anchor="start" x="119.98" y="-453" font-family="Linux libertine" font-size="10.00">(1, 128, 25, 25) </text>
</g>
<!-- 5&#45;&gt;6 -->
<g id="edge6" class="edge">
<title>5&#45;&gt;6</title>
<path fill="none" stroke="black" d="M104.97,-522.33C104.97,-514.76 104.97,-505.83 104.97,-497.37"/>
<polygon fill="black" stroke="black" points="108.47,-497.44 104.97,-487.44 101.47,-497.44 108.47,-497.44"/>
</g>
<!-- 7 -->
<g id="node8" class="node">
<title>7</title>
<polygon fill="#c1ffc1" stroke="none" points="195.58,-410 14.36,-410 14.36,-370 195.58,-370 195.58,-410"/>
<polygon fill="none" stroke="black" points="14.36,-370 14.36,-410 71.62,-410 71.62,-370 14.36,-370"/>
<text xml:space="preserve" text-anchor="start" x="19.36" y="-392" font-family="Linux libertine" font-size="10.00">Sequential</text>
<text xml:space="preserve" text-anchor="start" x="26.31" y="-382" font-family="Linux libertine" font-size="10.00">depth:1</text>
<polygon fill="none" stroke="black" points="71.62,-390 71.62,-410 114.98,-410 114.98,-390 71.62,-390"/>
<text xml:space="preserve" text-anchor="start" x="81.07" y="-397" font-family="Linux libertine" font-size="10.00">input:</text>
<polygon fill="none" stroke="black" points="114.98,-390 114.98,-410 195.58,-410 195.58,-390 114.98,-390"/>
<text xml:space="preserve" text-anchor="start" x="119.98" y="-397" font-family="Linux libertine" font-size="10.00">(1, 128, 25, 25) </text>
<polygon fill="none" stroke="black" points="71.62,-370 71.62,-390 114.98,-390 114.98,-370 71.62,-370"/>
<text xml:space="preserve" text-anchor="start" x="76.62" y="-377" font-family="Linux libertine" font-size="10.00">output: </text>
<polygon fill="none" stroke="black" points="114.98,-370 114.98,-390 195.58,-390 195.58,-370 114.98,-370"/>
<text xml:space="preserve" text-anchor="start" x="119.98" y="-377" font-family="Linux libertine" font-size="10.00">(1, 256, 13, 13) </text>
</g>
<!-- 6&#45;&gt;7 -->
<g id="edge7" class="edge">
<title>6&#45;&gt;7</title>
<path fill="none" stroke="black" d="M104.97,-446.33C104.97,-438.76 104.97,-429.83 104.97,-421.37"/>
<polygon fill="black" stroke="black" points="108.47,-421.44 104.97,-411.44 101.47,-421.44 108.47,-421.44"/>
</g>
<!-- 8 -->
<g id="node9" class="node">
<title>8</title>
<polygon fill="#c1ffc1" stroke="none" points="195.58,-334 14.36,-334 14.36,-294 195.58,-294 195.58,-334"/>
<polygon fill="none" stroke="black" points="14.36,-294 14.36,-334 71.62,-334 71.62,-294 14.36,-294"/>
<text xml:space="preserve" text-anchor="start" x="19.36" y="-316" font-family="Linux libertine" font-size="10.00">Sequential</text>
<text xml:space="preserve" text-anchor="start" x="26.31" y="-306" font-family="Linux libertine" font-size="10.00">depth:1</text>
<polygon fill="none" stroke="black" points="71.62,-314 71.62,-334 114.98,-334 114.98,-314 71.62,-314"/>
<text xml:space="preserve" text-anchor="start" x="81.07" y="-321" font-family="Linux libertine" font-size="10.00">input:</text>
<polygon fill="none" stroke="black" points="114.98,-314 114.98,-334 195.58,-334 195.58,-314 114.98,-314"/>
<text xml:space="preserve" text-anchor="start" x="119.98" y="-321" font-family="Linux libertine" font-size="10.00">(1, 256, 13, 13) </text>
<polygon fill="none" stroke="black" points="71.62,-294 71.62,-314 114.98,-314 114.98,-294 71.62,-294"/>
<text xml:space="preserve" text-anchor="start" x="76.62" y="-301" font-family="Linux libertine" font-size="10.00">output: </text>
<polygon fill="none" stroke="black" points="114.98,-294 114.98,-314 195.58,-314 195.58,-294 114.98,-294"/>
<text xml:space="preserve" text-anchor="start" x="125.54" y="-301" font-family="Linux libertine" font-size="10.00">(1, 512, 7, 7) </text>
</g>
<!-- 7&#45;&gt;8 -->
<g id="edge8" class="edge">
<title>7&#45;&gt;8</title>
<path fill="none" stroke="black" d="M104.97,-370.33C104.97,-362.76 104.97,-353.83 104.97,-345.37"/>
<polygon fill="black" stroke="black" points="108.47,-345.44 104.97,-335.44 101.47,-345.44 108.47,-345.44"/>
</g>
<!-- 9 -->
<g id="node10" class="node">
<title>9</title>
<polygon fill="#c1ffc1" stroke="none" points="209.95,-258 0,-258 0,-218 209.95,-218 209.95,-258"/>
<polygon fill="none" stroke="black" points="0,-218 0,-258 97.11,-258 97.11,-218 0,-218"/>
<text xml:space="preserve" text-anchor="start" x="5" y="-240" font-family="Linux libertine" font-size="10.00">AdaptiveAvgPool2d</text>
<text xml:space="preserve" text-anchor="start" x="31.87" y="-230" font-family="Linux libertine" font-size="10.00">depth:1</text>
<polygon fill="none" stroke="black" points="97.11,-238 97.11,-258 140.47,-258 140.47,-238 97.11,-238"/>
<text xml:space="preserve" text-anchor="start" x="106.56" y="-245" font-family="Linux libertine" font-size="10.00">input:</text>
<polygon fill="none" stroke="black" points="140.47,-238 140.47,-258 209.95,-258 209.95,-238 140.47,-238"/>
<text xml:space="preserve" text-anchor="start" x="145.47" y="-245" font-family="Linux libertine" font-size="10.00">(1, 512, 7, 7) </text>
<polygon fill="none" stroke="black" points="97.11,-218 97.11,-238 140.47,-238 140.47,-218 97.11,-218"/>
<text xml:space="preserve" text-anchor="start" x="102.11" y="-225" font-family="Linux libertine" font-size="10.00">output: </text>
<polygon fill="none" stroke="black" points="140.47,-218 140.47,-238 209.95,-238 209.95,-218 140.47,-218"/>
<text xml:space="preserve" text-anchor="start" x="145.47" y="-225" font-family="Linux libertine" font-size="10.00">(1, 512, 1, 1) </text>
</g>
<!-- 8&#45;&gt;9 -->
<g id="edge9" class="edge">
<title>8&#45;&gt;9</title>
<path fill="none" stroke="black" d="M104.97,-294.33C104.97,-286.76 104.97,-277.83 104.97,-269.37"/>
<polygon fill="black" stroke="black" points="108.47,-269.44 104.97,-259.44 101.47,-269.44 108.47,-269.44"/>
</g>
<!-- 10 -->
<g id="node11" class="node">
<title>10</title>
<polygon fill="aliceblue" stroke="none" points="183.07,-182 26.87,-182 26.87,-142 183.07,-142 183.07,-182"/>
<polygon fill="none" stroke="black" points="26.87,-142 26.87,-182 70.24,-182 70.24,-142 26.87,-142"/>
<text xml:space="preserve" text-anchor="start" x="34.93" y="-164" font-family="Linux libertine" font-size="10.00">flatten</text>
<text xml:space="preserve" text-anchor="start" x="31.87" y="-154" font-family="Linux libertine" font-size="10.00">depth:1</text>
<polygon fill="none" stroke="black" points="70.24,-162 70.24,-182 113.6,-182 113.6,-162 70.24,-162"/>
<text xml:space="preserve" text-anchor="start" x="79.69" y="-169" font-family="Linux libertine" font-size="10.00">input:</text>
<polygon fill="none" stroke="black" points="113.6,-162 113.6,-182 183.07,-182 183.07,-162 113.6,-162"/>
<text xml:space="preserve" text-anchor="start" x="118.6" y="-169" font-family="Linux libertine" font-size="10.00">(1, 512, 1, 1) </text>
<polygon fill="none" stroke="black" points="70.24,-142 70.24,-162 113.6,-162 113.6,-142 70.24,-142"/>
<text xml:space="preserve" text-anchor="start" x="75.24" y="-149" font-family="Linux libertine" font-size="10.00">output: </text>
<polygon fill="none" stroke="black" points="113.6,-142 113.6,-162 183.07,-162 183.07,-142 113.6,-142"/>
<text xml:space="preserve" text-anchor="start" x="129.71" y="-149" font-family="Linux libertine" font-size="10.00">(1, 512) </text>
</g>
<!-- 9&#45;&gt;10 -->
<g id="edge10" class="edge">
<title>9&#45;&gt;10</title>
<path fill="none" stroke="black" d="M104.97,-218.33C104.97,-210.76 104.97,-201.83 104.97,-193.37"/>
<polygon fill="black" stroke="black" points="108.47,-193.44 104.97,-183.44 101.47,-193.44 108.47,-193.44"/>
</g>
<!-- 11 -->
<g id="node12" class="node">
<title>11</title>
<polygon fill="#c1ffc1" stroke="none" points="171.96,-106 37.99,-106 37.99,-66 171.96,-66 171.96,-106"/>
<polygon fill="none" stroke="black" points="37.99,-66 37.99,-106 81.35,-106 81.35,-66 37.99,-66"/>
<text xml:space="preserve" text-anchor="start" x="45.77" y="-88" font-family="Linux libertine" font-size="10.00">Linear</text>
<text xml:space="preserve" text-anchor="start" x="42.99" y="-78" font-family="Linux libertine" font-size="10.00">depth:1</text>
<polygon fill="none" stroke="black" points="81.35,-86 81.35,-106 124.71,-106 124.71,-86 81.35,-86"/>
<text xml:space="preserve" text-anchor="start" x="90.8" y="-93" font-family="Linux libertine" font-size="10.00">input:</text>
<polygon fill="none" stroke="black" points="124.71,-86 124.71,-106 171.96,-106 171.96,-86 124.71,-86"/>
<text xml:space="preserve" text-anchor="start" x="129.71" y="-93" font-family="Linux libertine" font-size="10.00">(1, 512) </text>
<polygon fill="none" stroke="black" points="81.35,-66 81.35,-86 124.71,-86 124.71,-66 81.35,-66"/>
<text xml:space="preserve" text-anchor="start" x="86.35" y="-73" font-family="Linux libertine" font-size="10.00">output: </text>
<polygon fill="none" stroke="black" points="124.71,-66 124.71,-86 171.96,-86 171.96,-66 124.71,-66"/>
<text xml:space="preserve" text-anchor="start" x="135.28" y="-73" font-family="Linux libertine" font-size="10.00">(1, 5) </text>
</g>
<!-- 10&#45;&gt;11 -->
<g id="edge11" class="edge">
<title>10&#45;&gt;11</title>
<path fill="none" stroke="black" d="M104.97,-142.33C104.97,-134.76 104.97,-125.83 104.97,-117.37"/>
<polygon fill="black" stroke="black" points="108.47,-117.44 104.97,-107.44 101.47,-117.44 108.47,-117.44"/>
</g>
<!-- 12 -->
<g id="node13" class="node">
<title>12</title>
<polygon fill="lightyellow" stroke="none" points="156.11,-30 53.84,-30 53.84,0 156.11,0 156.11,-30"/>
<polygon fill="none" stroke="black" points="53.84,0 53.84,-30 122.77,-30 122.77,0 53.84,0"/>
<text xml:space="preserve" text-anchor="start" x="58.84" y="-17" font-family="Linux libertine" font-size="10.00">output&#45;tensor</text>
<text xml:space="preserve" text-anchor="start" x="71.62" y="-7" font-family="Linux libertine" font-size="10.00">depth:0</text>
<polygon fill="none" stroke="black" points="122.77,0 122.77,-30 156.11,-30 156.11,0 122.77,0"/>
<text xml:space="preserve" text-anchor="start" x="127.77" y="-12" font-family="Linux libertine" font-size="10.00">(1, 5)</text>
</g>
<!-- 11&#45;&gt;12 -->
<g id="edge12" class="edge">
<title>11&#45;&gt;12</title>
<path fill="none" stroke="black" d="M104.97,-66.15C104.97,-58.42 104.97,-49.38 104.97,-41.11"/>
<polygon fill="black" stroke="black" points="108.47,-41.31 104.97,-31.31 101.47,-41.31 108.47,-41.31"/>
</g>
</g>
</svg>
