<?xml version="1.0" encoding="UTF-8" standalone="no"?>
<!DOCTYPE svg PUBLIC "-//W3C//DTD SVG 1.1//EN"
 "http://www.w3.org/Graphics/SVG/1.1/DTD/svg11.dtd">
<!-- Generated by graphviz version 14.0.2 (20251019.1705)
 -->
<!-- Title: vgg16_arch Pages: 1 -->
<svg width="1816pt" height="3400pt"
 viewBox="0.00 0.00 1816.00 3400.00" xmlns="http://www.w3.org/2000/svg" xmlns:xlink="http://www.w3.org/1999/xlink">
<g id="graph0" class="graph" transform="scale(8.33333 8.33333) rotate(0) translate(4 404)">
<title>vgg16_arch</title>
<polygon fill="white" stroke="none" points="-4,4 -4,-404 213.95,-404 213.95,4 -4,4"/>
<!-- 0 -->
<g id="node1" class="node">
<title>0</title>
<polygon fill="lightyellow" stroke="none" points="175.29,-400 34.66,-400 34.66,-370 175.29,-370 175.29,-400"/>
<polygon fill="none" stroke="black" points="34.66,-370 34.66,-400 97.47,-400 97.47,-370 34.66,-370"/>
<text xml:space="preserve" text-anchor="start" x="39.66" y="-387" font-family="Linux libertine" font-size="10.00">input&#45;tensor</text>
<text xml:space="preserve" text-anchor="start" x="49.38" y="-377" font-family="Linux libertine" font-size="10.00">depth:0</text>
<polygon fill="none" stroke="black" points="97.47,-370 97.47,-400 175.29,-400 175.29,-370 97.47,-370"/>
<text xml:space="preserve" text-anchor="start" x="102.47" y="-382" font-family="Linux libertine" font-size="10.00">(1, 3, 200, 200)</text>
</g>
<!-- 1 -->
<g id="node2" class="node">
<title>1</title>
<polygon fill="#c1ffc1" stroke="none" points="195.58,-334 14.36,-334 14.36,-294 195.58,-294 195.58,-334"/>
<polygon fill="none" stroke="black" points="14.36,-294 14.36,-334 71.62,-334 71.62,-294 14.36,-294"/>
<text xml:space="preserve" text-anchor="start" x="19.36" y="-316" font-family="Linux libertine" font-size="10.00">Sequential</text>
<text xml:space="preserve" text-anchor="start" x="26.31" y="-306" font-family="Linux libertine" font-size="10.00">depth:1</text>
<polygon fill="none" stroke="black" points="71.62,-314 71.62,-334 114.98,-334 114.98,-314 71.62,-314"/>
<text xml:space="preserve" text-anchor="start" x="81.07" y="-321" font-family="Linux libertine" font-size="10.00">input:</text>
<polygon fill="none" stroke="black" points="114.98,-314 114.98,-334 195.58,-334 195.58,-314 114.98,-314"/>
<text xml:space="preserve" text-anchor="start" x="119.98" y="-321" font-family="Linux libertine" font-size="10.00">(1, 3, 200, 200) </text>
<polygon fill="none" stroke="black" points="71.62,-294 71.62,-314 114.98,-314 114.98,-294 71.62,-294"/>
<text xml:space="preserve" text-anchor="start" x="76.62" y="-301" font-family="Linux libertine" font-size="10.00">output: </text>
<polygon fill="none" stroke="black" points="114.98,-294 114.98,-314 195.58,-314 195.58,-294 114.98,-294"/>
<text xml:space="preserve" text-anchor="start" x="125.54" y="-301" font-family="Linux libertine" font-size="10.00">(1, 512, 6, 6) </text>
</g>
<!-- 0&#45;&gt;1 -->
<g id="edge1" class="edge">
<title>0&#45;&gt;1</title>
<path fill="none" stroke="black" d="M104.97,-370.04C104.97,-362.89 104.97,-353.89 104.97,-345.26"/>
<polygon fill="black" stroke="black" points="108.47,-345.43 104.97,-335.43 101.47,-345.43 108.47,-345.43"/>
</g>
<!-- 2 -->
<g id="node3" class="node">
<title>2</title>
<polygon fill="#c1ffc1" stroke="none" points="209.95,-258 0,-258 0,-218 209.95,-218 209.95,-258"/>
<polygon fill="none" stroke="black" points="0,-218 0,-258 97.11,-258 97.11,-218 0,-218"/>
<text xml:space="preserve" text-anchor="start" x="5" y="-240" font-family="Linux libertine" font-size="10.00">AdaptiveAvgPool2d</text>
<text xml:space="preserve" text-anchor="start" x="31.87" y="-230" font-family="Linux libertine" font-size="10.00">depth:1</text>
<polygon fill="none" stroke="black" points="97.11,-238 97.11,-258 140.47,-258 140.47,-238 97.11,-238"/>
<text xml:space="preserve" text-anchor="start" x="106.56" y="-245" font-family="Linux libertine" font-size="10.00">input:</text>
<polygon fill="none" stroke="black" points="140.47,-238 140.47,-258 209.95,-258 209.95,-238 140.47,-238"/>
<text xml:space="preserve" text-anchor="start" x="145.47" y="-245" font-family="Linux libertine" font-size="10.00">(1, 512, 6, 6) </text>
<polygon fill="none" stroke="black" points="97.11,-218 97.11,-238 140.47,-238 140.47,-218 97.11,-218"/>
<text xml:space="preserve" text-anchor="start" x="102.11" y="-225" font-family="Linux libertine" font-size="10.00">output: </text>
<polygon fill="none" stroke="black" points="140.47,-218 140.47,-238 209.95,-238 209.95,-218 140.47,-218"/>
<text xml:space="preserve" text-anchor="start" x="145.47" y="-225" font-family="Linux libertine" font-size="10.00">(1, 512, 7, 7) </text>
</g>
<!-- 1&#45;&gt;2 -->
<g id="edge2" class="edge">
<title>1&#45;&gt;2</title>
<path fill="none" stroke="black" d="M104.97,-294.33C104.97,-286.76 104.97,-277.83 104.97,-269.37"/>
<polygon fill="black" stroke="black" points="108.47,-269.44 104.97,-259.44 101.47,-269.44 108.47,-269.44"/>
</g>
<!-- 3 -->
<g id="node4" class="node">
<title>3</title>
<polygon fill="aliceblue" stroke="none" points="183.07,-182 26.87,-182 26.87,-142 183.07,-142 183.07,-182"/>
<polygon fill="none" stroke="black" points="26.87,-142 26.87,-182 70.24,-182 70.24,-142 26.87,-142"/>
<text xml:space="preserve" text-anchor="start" x="34.93" y="-164" font-family="Linux libertine" font-size="10.00">flatten</text>
<text xml:space="preserve" text-anchor="start" x="31.87" y="-154" font-family="Linux libertine" font-size="10.00">depth:1</text>
<polygon fill="none" stroke="black" points="70.24,-162 70.24,-182 113.6,-182 113.6,-162 70.24,-162"/>
<text xml:space="preserve" text-anchor="start" x="79.69" y="-169" font-family="Linux libertine" font-size="10.00">input:</text>
<polygon fill="none" stroke="black" points="113.6,-162 113.6,-182 183.07,-182 183.07,-162 113.6,-162"/>
<text xml:space="preserve" text-anchor="start" x="118.6" y="-169" font-family="Linux libertine" font-size="10.00">(1, 512, 7, 7) </text>
<polygon fill="none" stroke="black" points="70.24,-142 70.24,-162 113.6,-162 113.6,-142 70.24,-142"/>
<text xml:space="preserve" text-anchor="start" x="75.24" y="-149" font-family="Linux libertine" font-size="10.00">output: </text>
<polygon fill="none" stroke="black" points="113.6,-142 113.6,-162 183.07,-162 183.07,-142 113.6,-142"/>
<text xml:space="preserve" text-anchor="start" x="124.15" y="-149" font-family="Linux libertine" font-size="10.00">(1, 25088) </text>
</g>
<!-- 2&#45;&gt;3 -->
<g id="edge3" class="edge">
<title>2&#45;&gt;3</title>
<path fill="none" stroke="black" d="M104.97,-218.33C104.97,-210.76 104.97,-201.83 104.97,-193.37"/>
<polygon fill="black" stroke="black" points="108.47,-193.44 104.97,-183.44 101.47,-193.44 108.47,-193.44"/>
</g>
<!-- 4 -->
<g id="node5" class="node">
<title>4</title>
<polygon fill="#c1ffc1" stroke="none" points="184.47,-106 25.48,-106 25.48,-66 184.47,-66 184.47,-106"/>
<polygon fill="none" stroke="black" points="25.48,-66 25.48,-106 82.74,-106 82.74,-66 25.48,-66"/>
<text xml:space="preserve" text-anchor="start" x="30.48" y="-88" font-family="Linux libertine" font-size="10.00">Sequential</text>
<text xml:space="preserve" text-anchor="start" x="37.43" y="-78" font-family="Linux libertine" font-size="10.00">depth:1</text>
<polygon fill="none" stroke="black" points="82.74,-86 82.74,-106 126.1,-106 126.1,-86 82.74,-86"/>
<text xml:space="preserve" text-anchor="start" x="92.19" y="-93" font-family="Linux libertine" font-size="10.00">input:</text>
<polygon fill="none" stroke="black" points="126.1,-86 126.1,-106 184.47,-106 184.47,-86 126.1,-86"/>
<text xml:space="preserve" text-anchor="start" x="131.1" y="-93" font-family="Linux libertine" font-size="10.00">(1, 25088) </text>
<polygon fill="none" stroke="black" points="82.74,-66 82.74,-86 126.1,-86 126.1,-66 82.74,-66"/>
<text xml:space="preserve" text-anchor="start" x="87.74" y="-73" font-family="Linux libertine" font-size="10.00">output: </text>
<polygon fill="none" stroke="black" points="126.1,-66 126.1,-86 184.47,-86 184.47,-66 126.1,-66"/>
<text xml:space="preserve" text-anchor="start" x="142.22" y="-73" font-family="Linux libertine" font-size="10.00">(1, 5) </text>
</g>
<!-- 3&#45;&gt;4 -->
<g id="edge4" class="edge">
<title>3&#45;&gt;4</title>
<path fill="none" stroke="black" d="M104.97,-142.33C104.97,-134.76 104.97,-125.83 104.97,-117.37"/>
<polygon fill="black" stroke="black" points="108.47,-117.44 104.97,-107.44 101.47,-117.44 108.47,-117.44"/>
</g>
<!-- 5 -->
<g id="node6" class="node">
<title>5</title>
<polygon fill="lightyellow" stroke="none" points="156.11,-30 53.84,-30 53.84,0 156.11,0 156.11,-30"/>
<polygon fill="none" stroke="black" points="53.84,0 53.84,-30 122.77,-30 122.77,0 53.84,0"/>
<text xml:space="preserve" text-anchor="start" x="58.84" y="-17" font-family="Linux libertine" font-size="10.00">output&#45;tensor</text>
<text xml:space="preserve" text-anchor="start" x="71.62" y="-7" font-family="Linux libertine" font-size="10.00">depth:0</text>
<polygon fill="none" stroke="black" points="122.77,0 122.77,-30 156.11,-30 156.11,0 122.77,0"/>
<text xml:space="preserve" text-anchor="start" x="127.77" y="-12" font-family="Linux libertine" font-size="10.00">(1, 5)</text>
</g>
<!-- 4&#45;&gt;5 -->
<g id="edge5" class="edge">
<title>4&#45;&gt;5</title>
<path fill="none" stroke="black" d="M104.97,-66.15C104.97,-58.42 104.97,-49.38 104.97,-41.11"/>
<polygon fill="black" stroke="black" points="108.47,-41.31 104.97,-31.31 101.47,-41.31 108.47,-41.31"/>
</g>
</g>
</svg>
